<svg width="206" height="61" viewBox="0 0 206 61" fill="none" xmlns="http://www.w3.org/2000/svg">
<g id="amada-1 1" clip-path="url(#clip0_80_82)">
<path id="Vector" fill-rule="evenodd" clip-rule="evenodd" d="M9.11491 30.5479C9.11491 22.0035 15.2354 15.0775 22.7856 15.0775C30.3361 15.0775 36.4564 22.0035 36.4564 30.5479C36.4564 39.0921 30.3361 46.0186 22.7856 46.0186C15.2354 46.0186 9.11491 39.0921 9.11491 30.5479ZM9.11341 51.1796L9.11366 56.3329H0V30.5508C0 16.3104 10.2009 4.76636 22.7846 4.76636C35.3679 4.76636 45.5693 16.3104 45.5693 30.5508C45.5693 56.3329 45.5715 56.3329 45.5715 56.3329H36.4574V51.1779C32.6493 54.4157 27.9149 56.3343 22.7849 56.3343C17.6551 56.3346 12.9215 54.4174 9.11341 51.1796Z" fill="black"/>
<path id="Vector_2" d="M78.3992 29.5169H87.5131V56.3329H78.3992V48.4056L73.8339 56.3329H66.5392L61.9739 48.4056V56.3329H52.8602V29.5169H61.9739L70.1864 43.8284L78.3992 29.5169ZM114.083 48.0844L110.298 39.1737L106.512 48.0844H114.083ZM106.196 29.5197H117.133L128.525 56.3346H117.589L116.274 53.2406H104.321L103.007 56.3346H92.07L103.463 29.5197H106.196ZM150.399 51.1782C154.425 51.1782 157.69 47.4849 157.69 42.928C157.69 38.3712 154.425 34.6761 150.399 34.6761H143.108V51.1782H150.399ZM155.867 29.5197C162.41 29.5197 167.715 35.5221 167.715 42.928C167.715 50.3325 162.41 56.3346 155.867 56.3346H133.082V29.5197H155.867ZM190.666 48.0844L186.88 39.1737L183.095 48.0844H190.666ZM182.779 29.5197H193.715L205.108 56.3346H194.172L192.858 53.2406H180.904L179.59 56.3346H168.652L180.045 29.5197H182.779Z" fill="black"/>
<path id="Vector_3" fill-rule="evenodd" clip-rule="evenodd" d="M201.439 30.5196C201.058 30.9531 200.868 31.4767 200.868 32.089C200.868 32.7059 201.057 33.234 201.437 33.6686C201.817 34.1038 202.28 34.3212 202.825 34.3212C203.369 34.3212 203.832 34.1038 204.213 33.6686C204.594 33.234 204.784 32.7059 204.785 32.089C204.785 31.4767 204.594 30.9531 204.213 30.5196C203.83 30.0847 203.367 29.867 202.825 29.867C202.284 29.867 201.822 30.0847 201.439 30.5196ZM204.439 33.9181C203.995 34.4236 203.456 34.6762 202.825 34.6762C202.193 34.6762 201.656 34.4236 201.212 33.9181C200.772 33.4146 200.551 32.8054 200.551 32.089C200.551 31.38 200.773 30.7739 201.219 30.2704C201.662 29.7698 202.196 29.5194 202.824 29.5194C203.456 29.5194 203.994 29.7698 204.439 30.2704C204.884 30.7716 205.108 31.3772 205.108 32.089C205.108 32.8023 204.884 33.4132 204.439 33.9181ZM203.254 31.1138C203.143 31.0429 202.966 31.0078 202.722 31.0078H202.346V32.0332H202.744C202.93 32.0332 203.07 32.0125 203.163 31.9691C203.335 31.8923 203.421 31.7454 203.421 31.528C203.421 31.3216 203.365 31.1841 203.254 31.1138ZM202.781 30.6673C203.092 30.6673 203.319 30.7016 203.465 30.7694C203.724 30.8913 203.853 31.1297 203.853 31.4846C203.853 31.7375 203.771 31.9243 203.607 32.0442C203.52 32.1066 203.399 32.1531 203.244 32.1803C203.441 32.2154 203.585 32.3081 203.676 32.4584C203.766 32.6069 203.812 32.7544 203.812 32.8964V33.1042C203.812 33.1697 203.815 33.2386 203.819 33.3134C203.823 33.3888 203.83 33.4379 203.841 33.462L203.856 33.4971H203.443C203.441 33.4876 203.439 33.4779 203.437 33.4682C203.435 33.4578 203.432 33.4472 203.431 33.4364L203.422 33.3454V33.1218C203.422 32.7941 203.343 32.5766 203.186 32.4712C203.092 32.4099 202.93 32.3796 202.695 32.3796H202.347V33.4971H201.906V30.6667H202.781V30.6673Z" fill="black"/>
<path id="Vector_4" d="M9.06781 30.5508C9.06781 21.978 15.2089 15.0291 22.7844 15.0291C30.3596 15.0291 36.5005 21.978 36.5005 30.5508C36.5005 39.1241 30.3594 46.0725 22.7844 46.0725C15.2089 46.0728 9.06781 39.1241 9.06781 30.5508Z" fill="#E2001A"/>
<path id="Vector_5" d="M9.06781 30.5508C9.06781 21.978 15.2089 15.0291 22.7844 15.0291C30.3596 15.0291 36.5005 21.978 36.5005 30.5508C36.5005 39.1241 30.3594 46.0725 22.7844 46.0725C15.2089 46.0728 9.06781 39.1241 9.06781 30.5508Z" fill="#E53434"/>
</g>
<defs>
<clipPath id="clip0_80_82">
<rect width="205.108" height="59.9772" fill="white" transform="translate(0 0.56189)"/>
</clipPath>
</defs>
</svg>
