<svg width="163" height="91" viewBox="0 0 163 91" fill="none" xmlns="http://www.w3.org/2000/svg">
<g id="Group">
<path id="Vector" fill-rule="evenodd" clip-rule="evenodd" d="M81.7936 25.2308C80.9257 12.1922 70.1017 4.26336 51.0065 4.26336C30.3282 4.26336 5.82099 19.2684 5.25934 37.8775C4.90218 51.1786 19.2997 57.7311 35.792 52.2924L35.9456 56.356C19.4542 61.7947 3.06456 50.5255 3.16726 37.2232C3.32086 15.1407 29.4103 0.200972 50.1404 0.921777C70.5125 1.57727 82.5116 12.8477 82.6634 24.7724L81.7936 25.2308Z" fill="#19938D"/>
<path id="Vector_2" fill-rule="evenodd" clip-rule="evenodd" d="M55.9078 62.6449H56.1122C56.3667 62.6449 56.4185 62.5155 56.4185 62.2531V57.7976C56.4185 57.3381 56.3667 57.2739 56.0604 57.2739H55.9068V57.0768H58.0008C58.7669 57.0768 59.4303 57.4034 59.4303 58.3225C59.4303 59.0409 58.8687 59.6976 58.307 59.8282C59.0732 60.0253 59.2258 60.2225 59.2767 61.3363V62.3196C59.2767 62.4514 59.3276 62.6461 59.4303 62.6461C59.5839 62.6461 59.6857 62.4514 59.7366 62.1889L59.9411 62.3184C59.7875 62.7126 59.5839 63.0392 59.2268 63.0392C58.6651 63.0392 58.5633 62.4502 58.5124 61.9253L58.4615 60.8103C58.4615 60.156 58.2062 59.9588 57.5936 59.9588H57.1328V62.1201C57.1328 62.5143 57.1837 62.6437 57.4391 62.6437H57.6436V62.9062H55.9078V62.6449ZM57.1328 59.6976H57.6436C58.2052 59.6976 58.6133 59.371 58.6133 58.5172C58.6133 57.6017 58.2561 57.2739 57.6436 57.2739H57.1328V59.6976ZM62.2904 56.8797C62.3922 56.7502 62.4949 56.6826 62.5967 56.6826C62.7493 56.6826 62.9029 56.8144 62.9029 57.0115C62.9029 57.2062 62.8011 57.2739 62.6984 57.4034L61.7278 58.1242H61.3707L62.2904 56.8797ZM61.0135 60.8756C61.0135 62.2531 61.1671 62.7779 61.7278 62.7779C62.3404 62.7779 62.7493 62.2542 62.7493 61.4669H63.0047C63.0047 62.4502 62.4431 63.0392 61.7287 63.0392C60.759 63.0392 60.2992 61.9906 60.2992 60.8756C60.2992 59.6976 60.759 58.7144 61.7287 58.7144C62.6476 58.7144 63.0565 59.8282 63.0565 60.8756H61.0135ZM62.3404 60.6131C62.3404 59.6323 62.1877 58.9103 61.6769 58.9103C61.1671 58.9103 61.0135 59.6311 61.0135 60.6131H62.3404ZM65.813 59.9588H65.6594C65.5576 59.3698 65.2513 58.9103 64.7406 58.9103C64.3825 58.9103 64.1789 59.2368 64.1789 59.6964C64.1789 60.8103 66.0174 59.9588 66.0174 61.6629C66.0174 62.5143 65.4558 63.038 64.8423 63.038C64.6887 63.038 64.5361 62.9727 64.3825 62.9062H63.9744C63.8208 62.9062 63.719 62.9739 63.6681 62.9739H63.6173V61.5964H63.8217C63.8726 62.3172 64.2298 62.7767 64.7914 62.7767C64.8728 62.7809 64.9539 62.7635 65.0297 62.7254C65.1054 62.6874 65.1743 62.6296 65.2318 62.5558C65.2894 62.4819 65.3344 62.3936 65.364 62.2963C65.3936 62.1991 65.4072 62.095 65.404 61.9906C65.404 60.6796 63.6173 61.7282 63.6173 59.9588C63.6173 59.1727 64.128 58.7132 64.7406 58.7132C64.8941 58.7132 65.0468 58.7132 65.1486 58.7785C65.3022 58.7785 65.404 58.8462 65.4549 58.8462C65.5664 58.8543 65.676 58.8071 65.7611 58.7144H65.812L65.813 59.9588ZM67.2425 60.8756C67.2425 62.2531 67.447 62.7779 68.0087 62.7779C68.6212 62.7779 68.9793 62.2542 68.9793 61.4669H69.2338C69.2338 62.4502 68.7239 63.0392 68.0087 63.0392C67.039 63.0392 66.5282 61.9906 66.5282 60.8756C66.5282 59.6976 67.039 58.7144 68.0087 58.7144C68.9275 58.7144 69.3365 59.8282 69.2856 60.8756H67.2425ZM68.5703 60.6131C68.5703 59.6323 68.4167 58.9103 67.906 58.9103C67.4461 58.9103 67.2934 59.6311 67.2425 60.6131H68.5703ZM73.1144 61.9906C73.1144 62.5796 72.9608 63.0392 72.4501 63.0392C72.1438 63.0392 71.8884 62.8421 71.8375 62.4502C71.633 62.9074 71.3268 63.0392 70.9696 63.0392C70.4079 63.0392 69.9481 62.6449 69.9481 61.8588C69.9481 60.9433 70.7651 60.4184 71.4285 60.4184C71.5821 60.4184 71.6839 60.4837 71.8366 60.4837V59.6976C71.8366 59.238 71.7348 58.9115 71.3258 58.9115C71.224 58.9115 70.866 58.9768 70.866 59.238C70.866 59.3033 70.9677 59.3698 70.9677 59.6323C70.9677 59.8947 70.7633 60.0895 70.5597 60.0895C70.3043 60.0895 70.1516 59.827 70.1516 59.5005C70.1516 58.8462 71.0196 58.7144 71.3258 58.7144C71.9893 58.7144 72.4491 58.9768 72.4491 59.8947V62.3184C72.4491 62.5155 72.5009 62.6449 72.6536 62.6449C72.8581 62.6449 72.8581 62.2531 72.8581 61.9906V61.7935H73.1135L73.1144 61.9906ZM71.8375 60.745C71.6839 60.6796 71.5821 60.6796 71.4803 60.6796C70.9696 60.6796 70.6124 61.2033 70.6124 61.8576C70.6124 62.3172 70.8169 62.6437 71.225 62.6437C71.3868 62.6413 71.5415 62.5577 71.656 62.4108C71.7704 62.2639 71.8356 62.0653 71.8375 61.8576V60.745ZM73.318 58.8462H73.6242C73.9305 58.8462 74.3904 58.7785 74.544 58.7144C74.4931 58.9768 74.4931 59.238 74.4931 59.5005V61.5323C74.4931 62.1889 74.6467 62.6461 75.1056 62.6461C75.5646 62.6461 75.8718 62.0571 75.8718 61.1404V59.8282C75.8718 59.1739 75.8718 59.0421 75.6164 59.0421H75.3092V58.8474H75.6164C75.9227 58.8474 76.3825 58.7797 76.5352 58.7155C76.4843 58.978 76.4843 59.2392 76.4843 59.5016V61.993C76.4843 62.5167 76.4843 62.6473 76.6888 62.6473H76.9951V62.9097H75.8718V62.2554C75.6673 62.715 75.361 63.0415 74.8503 63.0415C74.0332 63.0415 73.8287 62.582 73.8287 61.7306V59.8959C73.8287 59.2392 73.8287 59.0421 73.6242 59.0421H73.318V58.8462Z" fill="black"/>
<path id="Vector_3" fill-rule="evenodd" clip-rule="evenodd" d="M81.3347 56.9438C81.3856 57.2727 81.4873 57.6005 81.5901 57.8617L82.7124 61.5964C83.0196 62.6449 83.1223 62.6449 83.3268 62.6449H83.4277V62.9073H81.6409V62.6449H81.7936C82.0999 62.6449 82.1517 62.5796 82.1517 62.4502C82.1517 62.3183 82.1517 62.253 82.099 62.0559L81.7427 60.9421H80.0069L79.7515 61.6629C79.6497 62.0547 79.5988 62.2518 79.5988 62.3813C79.5988 62.6437 79.8024 62.6437 80.0069 62.6437H80.1087V62.9062H78.7809V62.6437H78.8318C79.0363 62.6437 79.1899 62.5784 79.3425 62.0547L80.7212 57.7964C80.823 57.534 80.9257 57.2727 80.9766 56.9426L81.3347 56.9438ZM81.6918 60.7449L80.8748 58.1895L80.0578 60.7449H81.6918Z" fill="#19938D"/>
<path id="Vector_4" fill-rule="evenodd" clip-rule="evenodd" d="M83.3768 62.6449H83.6821C83.8357 62.6449 83.8866 62.5155 83.8866 62.0559V57.7976C83.8866 57.0768 83.8866 57.0115 83.6821 57.0115H83.3768V56.7491H84.5519V62.0559C84.5519 62.5155 84.6028 62.6449 84.7564 62.6449H85.0617V62.9074H83.3777L83.3768 62.6449ZM87.3583 63.0392C87.0021 63.0392 86.594 62.7767 86.3895 62.2531V63.8906C86.3895 64.3502 86.4904 64.4143 86.644 64.4143H86.8984V64.6767H85.2144V64.4143H85.5197C85.6733 64.4143 85.7761 64.349 85.7761 63.8906V59.827C85.7761 59.238 85.7761 59.0409 85.5197 59.0409H85.2144V58.8462H85.9278C86.0814 58.8462 86.235 58.7785 86.3886 58.7144V59.5005C86.5403 59.0409 86.8984 58.7144 87.3574 58.7144C88.2771 58.7144 88.5824 59.8947 88.5824 60.8115C88.5834 61.9265 88.1753 63.0392 87.3583 63.0392ZM87.87 60.8103C87.87 59.827 87.7164 59.1074 87.2065 59.1074C86.6949 59.1074 86.3895 59.5646 86.3895 60.8103C86.3895 62.0559 86.6949 62.6449 87.2065 62.6449C87.7682 62.6449 87.87 61.7935 87.87 60.8103ZM88.9415 62.6449H89.1959C89.4023 62.6449 89.4522 62.5155 89.4522 62.0559V59.6323C89.4522 59.1727 89.4522 59.0409 89.1959 59.0409H88.9415V58.8462H89.3495C89.6567 58.8462 89.9621 58.7785 90.1157 58.7144C90.1157 58.8462 90.0648 59.1086 90.0648 59.5658V62.0571C90.0648 62.5167 90.1656 62.6461 90.3192 62.6461H90.5737V62.9086H88.9396V62.6449H88.9415ZM89.7585 56.9438C90.0148 56.9438 90.2193 57.1409 90.2193 57.4675C90.2195 57.5452 90.2078 57.6223 90.1847 57.6942C90.1616 57.7661 90.1277 57.8314 90.0849 57.8864C90.042 57.9413 89.9911 57.9849 89.9351 58.0145C89.8791 58.0441 89.8191 58.0592 89.7585 58.0589C89.554 58.0589 89.3504 57.7964 89.3504 57.4675C89.3495 57.2062 89.554 56.9438 89.7585 56.9438ZM90.7791 62.6449H91.0863C91.2908 62.6449 91.2908 62.4502 91.2908 62.1212V59.8947C91.2908 59.238 91.2908 59.0409 91.0863 59.0409H90.7791V58.8462H91.0863C91.5452 58.8462 91.7997 58.7785 91.9033 58.7144V59.4352C92.2087 58.9115 92.5159 58.7144 92.9748 58.7144C93.5873 58.7144 93.9454 59.1086 93.9454 59.8947V61.9918C93.9454 62.5155 93.9454 62.6461 94.1499 62.6461H94.4571V62.9086H92.8212V62.6461H93.0257C93.282 62.6461 93.282 62.5167 93.282 61.9918V60.0895C93.282 59.5658 93.1793 59.1086 92.7203 59.1086C92.0569 59.1086 91.9542 59.96 91.9542 60.6143V62.1224C91.9542 62.5167 92.0051 62.6461 92.1587 62.6461H92.4659V62.9086H90.78L90.7791 62.6449ZM97.8261 58.7132C98.2341 58.7132 98.5922 58.9103 98.7967 59.434V57.6646C98.7967 57.1409 98.7967 57.0103 98.5922 57.0103H98.285V56.7479H99.4601V61.9241C99.4601 62.5131 99.4601 62.6426 99.6646 62.6426H99.9191V62.905H98.8476V62.1866H98.7967C98.5922 62.7102 98.285 63.038 97.8261 63.038C97.009 63.038 96.601 61.9241 96.601 60.8091C96.6001 59.8947 96.9073 58.7132 97.8261 58.7132ZM98.7958 60.8103C98.7958 59.5646 98.4886 59.1074 97.9787 59.1074C97.4671 59.1074 97.3153 59.8258 97.3153 60.8103C97.3153 61.7947 97.4162 62.6449 97.9787 62.6449C98.4886 62.6449 98.7958 62.0559 98.7958 60.8103ZM101.042 60.8756C101.042 62.2531 101.247 62.7779 101.809 62.7779C102.421 62.7779 102.779 62.2542 102.779 61.4669H103.034C103.034 62.4502 102.522 63.0392 101.809 63.0392C100.838 63.0392 100.328 61.9906 100.328 60.8756C100.328 59.6976 100.838 58.7144 101.809 58.7144C102.726 58.7144 103.135 59.8282 103.084 60.8756H101.042ZM102.371 60.6131C102.371 59.6323 102.217 58.9103 101.706 58.9103C101.247 58.9103 101.093 59.6311 101.042 60.6131H102.371ZM105.893 59.9588H105.688C105.586 59.3698 105.28 58.9103 104.82 58.9103C104.739 58.9059 104.658 58.9233 104.582 58.9612C104.506 58.9992 104.437 59.0569 104.38 59.1308C104.322 59.2047 104.277 59.2931 104.247 59.3905C104.218 59.4878 104.204 59.592 104.208 59.6964C104.208 60.8103 106.045 59.9588 106.045 61.6629C106.045 62.5143 105.484 63.038 104.87 63.038C104.717 63.038 104.563 62.9727 104.411 62.9062H104.003C103.901 62.9062 103.747 62.9739 103.747 62.9739H103.696V61.5964H103.85C103.901 62.3172 104.258 62.7767 104.82 62.7767C105.177 62.7767 105.484 62.4502 105.484 61.9906C105.484 60.6796 103.646 61.7282 103.646 59.9588C103.646 59.1727 104.156 58.7132 104.821 58.7132C104.973 58.7132 105.076 58.7132 105.229 58.7785C105.33 58.7785 105.434 58.8462 105.535 58.8462C105.637 58.8462 105.739 58.7785 105.842 58.7144H105.893V59.9588ZM108.394 62.6449H108.65C108.802 62.6449 108.905 62.5796 108.905 62.1212V57.8629C108.905 57.3392 108.854 57.2739 108.597 57.2739H108.393V57.0768H111.865V58.3878H111.66C111.66 57.6017 111.355 57.2739 110.742 57.2739H109.618V59.827H110.589C110.997 59.827 111.15 59.4351 111.15 58.9115H111.405V60.9433H111.15C111.15 60.4196 110.997 60.0253 110.589 60.0253H109.618V62.6461H110.793C111.406 62.6461 111.713 62.3196 111.713 61.4681H111.967V62.9086H108.393L108.394 62.6449ZM114.777 59.9588H114.573C114.522 59.3698 114.215 58.9103 113.705 58.9103C113.347 58.9103 113.143 59.2368 113.143 59.6964C113.143 60.8103 114.981 59.9588 114.981 61.6629C114.981 62.5143 114.419 63.038 113.756 63.038C113.602 63.038 113.449 62.9727 113.297 62.9062H112.939C112.785 62.9062 112.684 62.9739 112.632 62.9739H112.581V61.5964H112.785C112.836 62.3172 113.193 62.7767 113.756 62.7767C113.837 62.7811 113.918 62.7638 113.994 62.7258C114.07 62.6878 114.139 62.6301 114.197 62.5562C114.254 62.4823 114.299 62.3939 114.329 62.2965C114.358 62.1992 114.372 62.095 114.368 61.9906C114.368 60.6796 112.581 61.7282 112.581 59.9588C112.581 59.1727 113.091 58.7132 113.705 58.7132C113.857 58.7132 114.01 58.7132 114.113 58.7785C114.265 58.7785 114.367 58.8462 114.418 58.8462C114.53 58.8538 114.64 58.8067 114.726 58.7144H114.776L114.777 59.9588ZM117.483 63.0392C117.075 63.0392 116.717 62.7767 116.512 62.2531H116.461V63.8906C116.461 64.3502 116.564 64.4143 116.716 64.4143H116.972V64.6767H115.338V64.4143H115.593C115.797 64.4143 115.847 64.349 115.847 63.8906V59.827C115.847 59.238 115.847 59.0409 115.593 59.0409H115.338V58.8462H116.002C116.155 58.8462 116.307 58.7785 116.46 58.7144V59.5005C116.665 59.0409 117.022 58.7144 117.482 58.7144C118.351 58.7144 118.657 59.8947 118.657 60.8115C118.657 61.9265 118.249 63.0392 117.483 63.0392ZM117.942 60.8103C117.942 59.827 117.79 59.1074 117.278 59.1074C116.769 59.1074 116.461 59.5646 116.461 60.8103C116.461 62.0559 116.769 62.6449 117.278 62.6449C117.84 62.6449 117.942 61.7935 117.942 60.8103ZM122.436 61.9906C122.436 62.5796 122.282 63.0392 121.771 63.0392C121.465 63.0392 121.211 62.8421 121.158 62.4502C120.954 62.9074 120.598 63.0392 120.29 63.0392C119.729 63.0392 119.269 62.6449 119.269 61.8588C119.269 60.9433 120.086 60.4184 120.749 60.4184C120.852 60.4184 121.005 60.4837 121.107 60.4837V59.6976C121.107 59.238 121.056 58.9115 120.648 58.9115C120.546 58.9115 120.189 58.9768 120.189 59.238C120.189 59.3033 120.29 59.3698 120.29 59.6323C120.29 59.8947 120.086 60.0895 119.882 60.0895C119.628 60.0895 119.474 59.827 119.474 59.5005C119.474 58.8462 120.291 58.7144 120.649 58.7144C121.313 58.7144 121.772 58.9768 121.772 59.8947V62.3184C121.772 62.5155 121.824 62.6449 121.925 62.6449C122.18 62.6449 122.18 62.2531 122.18 61.9906V61.7935H122.436V61.9906ZM121.108 60.745C121.007 60.6796 120.904 60.6796 120.803 60.6796C120.291 60.6796 119.934 61.2033 119.934 61.8576C119.934 62.3172 120.138 62.6437 120.496 62.6437C120.853 62.6437 121.108 62.3172 121.108 61.8576V60.745ZM125.449 61.4669C125.449 62.4502 124.937 63.0392 124.274 63.0392C123.303 63.0392 122.844 61.9906 122.844 60.8756C122.844 59.6976 123.303 58.7144 124.274 58.7144C124.783 58.7144 125.345 58.9115 125.345 59.5658C125.345 59.8947 125.191 60.0895 124.937 60.0895C124.733 60.0895 124.579 59.8947 124.579 59.6323C124.579 59.3698 124.682 59.3033 124.682 59.1727C124.682 58.9756 124.425 58.9103 124.274 58.9103C123.712 58.9103 123.558 59.434 123.558 60.8744C123.558 61.7923 123.661 62.7767 124.324 62.7767C124.886 62.7767 125.192 62.1877 125.192 61.4658L125.449 61.4669ZM126.674 60.8756C126.674 62.2531 126.826 62.7779 127.387 62.7779C128 62.7779 128.409 62.2542 128.409 61.4669H128.663C128.663 62.4502 128.103 63.0392 127.387 63.0392C126.417 63.0392 125.958 61.9906 125.958 60.8756C125.958 59.6976 126.417 58.7144 127.387 58.7144C128.307 58.7144 128.716 59.8282 128.716 60.8756H126.674ZM128.001 60.6131C128.001 59.6323 127.847 58.9103 127.337 58.9103C126.826 58.9103 126.674 59.6311 126.674 60.6131H128.001ZM131.472 59.9588H131.321C131.218 59.3698 130.913 58.9103 130.401 58.9103C130.043 58.9103 129.839 59.2368 129.839 59.6964C129.839 60.8103 131.677 59.9588 131.677 61.6629C131.677 62.5143 131.115 63.038 130.502 63.038C130.35 63.038 130.196 62.9727 130.043 62.9062H129.635C129.481 62.9062 129.38 62.9739 129.329 62.9739H129.277V61.5964H129.481C129.534 62.3172 129.889 62.7767 130.452 62.7767C130.533 62.7811 130.614 62.7638 130.69 62.7258C130.766 62.6878 130.835 62.6301 130.892 62.5562C130.95 62.4823 130.995 62.3939 131.025 62.2965C131.054 62.1992 131.068 62.095 131.064 61.9906C131.064 60.6796 129.277 61.7282 129.277 59.9588C129.277 59.1727 129.788 58.7132 130.401 58.7132C130.554 58.7132 130.708 58.7132 130.809 58.7785C130.962 58.7785 131.063 58.8462 131.114 58.8462C131.226 58.8543 131.336 58.8071 131.421 58.7144H131.472V59.9588ZM133.975 62.6449H134.18C134.434 62.6449 134.485 62.5155 134.485 62.2531V57.7976C134.485 57.3381 134.384 57.2739 134.127 57.2739H133.975V57.0768H135.71C136.476 57.0768 137.396 57.3392 137.396 58.5849C137.396 59.7629 136.425 60.1571 135.813 60.1571H135.2V62.1212C135.2 62.5155 135.2 62.6449 135.506 62.6449H135.71V62.9074H133.975V62.6449ZM135.2 59.8947H135.608C136.221 59.8947 136.577 59.3033 136.577 58.5172C136.577 57.7311 136.118 57.2739 135.506 57.2739H135.2V59.8947ZM137.701 62.6449H137.956C138.212 62.6449 138.212 62.4502 138.212 62.1212V59.8947C138.212 59.238 138.159 59.0409 138.008 59.0409H137.7V58.8462H138.364C138.517 58.8462 138.671 58.7785 138.825 58.7144V59.6323C139.029 59.1727 139.284 58.7144 139.743 58.7144C140.05 58.7144 140.304 58.9115 140.304 59.3033C140.304 59.6323 140.151 59.8947 139.896 59.8947C139.743 59.8947 139.538 59.7629 139.538 59.5005C139.538 59.371 139.589 59.371 139.589 59.3033C139.589 59.238 139.488 59.238 139.437 59.238C139.029 59.238 138.825 59.7617 138.825 61.2698V62.1212C138.825 62.5155 138.876 62.6449 139.079 62.6449H139.437V62.9074H137.7V62.6449H137.701ZM142.195 63.0392C141.224 63.0392 140.765 61.9906 140.765 60.8756C140.765 59.6976 141.224 58.7144 142.195 58.7144C143.165 58.7144 143.677 59.6976 143.677 60.8756C143.676 61.9906 143.165 63.0392 142.195 63.0392ZM142.195 58.9115C141.633 58.9115 141.481 59.4352 141.481 60.8756C141.481 62.2531 141.633 62.7779 142.195 62.7779C142.807 62.7779 142.961 62.2542 142.961 60.8756C142.961 59.4352 142.807 58.9115 142.195 58.9115ZM145.973 59.0409H145.207V62.2531C145.207 62.4502 145.31 62.6449 145.462 62.6449C145.718 62.6449 145.769 62.3184 145.769 61.8588V61.7294H146.023V61.9265C146.023 62.5808 145.923 63.0404 145.257 63.0404C144.747 63.0404 144.594 62.7138 144.594 62.0571V59.0421H144.032V58.8474C144.645 58.7797 144.952 58.1265 145.003 57.4045H145.207V58.8474H145.973V59.0409ZM148.424 56.8797C148.524 56.7502 148.577 56.6826 148.731 56.6826C148.883 56.6826 149.036 56.8144 149.036 57.0115C149.036 57.2062 148.933 57.2739 148.832 57.4034L147.861 58.1242H147.503L148.424 56.8797ZM147.148 60.8756C147.148 62.2531 147.299 62.7779 147.861 62.7779C148.474 62.7779 148.883 62.2542 148.883 61.4669H149.139C149.139 62.4502 148.577 63.0392 147.861 63.0392C146.89 63.0392 146.431 61.9906 146.431 60.8756C146.431 59.6976 146.89 58.7144 147.861 58.7144C148.781 58.7144 149.19 59.8282 149.19 60.8756H147.148ZM148.474 60.6131C148.424 59.6323 148.27 58.9103 147.811 58.9103C147.299 58.9103 147.148 59.6311 147.148 60.6131H148.474ZM151.487 62.1877C152.151 62.1877 152.712 62.3825 152.712 63.3657C152.712 64.4143 151.895 64.8085 151.182 64.8085C150.67 64.8085 149.752 64.6114 149.752 63.6935C149.752 63.2363 150.058 62.8421 150.466 62.8421V62.7767C150.347 62.7493 150.241 62.6676 150.166 62.5468C150.09 62.426 150.052 62.2744 150.058 62.1201C150.058 61.7282 150.262 61.4658 150.569 61.3339C150.109 61.1392 149.854 60.745 149.854 60.156C149.854 59.1727 150.467 58.7132 151.183 58.7132H151.488C151.591 58.7785 151.642 58.7785 151.743 58.7785C151.947 58.7785 152.05 58.7132 152.203 58.5837C152.355 58.516 152.458 58.4519 152.662 58.4519C152.867 58.4519 152.968 58.649 152.968 58.9115C152.968 59.1086 152.867 59.3033 152.662 59.3033C152.355 59.3033 152.408 58.9115 152.304 58.9115C152.203 58.9115 152.1 58.9768 151.999 59.0409C152.253 59.238 152.458 59.6323 152.458 60.0895C152.458 61.4004 151.538 61.5323 151.079 61.5323C150.467 61.5976 150.366 61.6641 150.366 61.8588C150.366 62.0559 150.518 62.1877 150.978 62.1877H151.487ZM150.568 60.156C150.568 60.745 150.669 61.2698 151.181 61.2698C151.691 61.2698 151.794 60.6808 151.794 60.156C151.794 59.6311 151.691 58.9103 151.181 58.9103C150.619 58.9115 150.568 59.5005 150.568 60.156ZM150.261 63.6935C150.261 64.3502 150.669 64.5473 151.232 64.5473C151.64 64.5473 152.202 64.2848 152.202 63.6935C152.202 62.975 151.742 62.9074 151.334 62.9074C150.721 62.9074 150.261 62.9739 150.261 63.6935ZM155.266 56.8797C155.367 56.7502 155.471 56.6826 155.571 56.6826C155.725 56.6826 155.879 56.8144 155.879 57.0115C155.879 57.2062 155.776 57.2739 155.674 57.4034L154.704 58.1242H154.345L155.266 56.8797ZM153.988 60.8756C153.988 62.2531 154.142 62.7779 154.704 62.7779C155.316 62.7779 155.725 62.2542 155.725 61.4669H155.98C155.98 62.4502 155.42 63.0392 154.704 63.0392C153.733 63.0392 153.274 61.9906 153.274 60.8756C153.274 59.6976 153.733 58.7144 154.704 58.7144C155.623 58.7144 156.032 59.8282 156.032 60.8756H153.988ZM155.316 60.6131C155.316 59.6323 155.162 58.9103 154.653 58.9103C154.141 58.9103 153.987 59.6311 153.987 60.6131H155.316ZM158.788 59.9588H158.583C158.532 59.3698 158.225 58.9103 157.715 58.9103C157.357 58.9103 157.154 59.2368 157.154 59.6964C157.154 60.8103 158.991 59.9588 158.991 61.6629C158.991 62.5143 158.43 63.038 157.816 63.038C157.664 63.038 157.511 62.9727 157.357 62.9062H156.949C156.796 62.9062 156.695 62.9739 156.644 62.9739H156.591V61.5964H156.796C156.848 62.3172 157.204 62.7767 157.766 62.7767C157.848 62.7811 157.929 62.7638 158.005 62.7258C158.08 62.6878 158.149 62.6301 158.207 62.5562C158.264 62.4823 158.31 62.3939 158.339 62.2965C158.369 62.1992 158.382 62.095 158.379 61.9906C158.379 60.6796 156.591 61.7282 156.591 59.9588C156.591 59.1727 157.103 58.7132 157.715 58.7132C157.869 58.7132 158.021 58.7132 158.123 58.7785C158.277 58.7785 158.378 58.8462 158.429 58.8462C158.541 58.8543 158.65 58.8071 158.736 58.7144H158.787V59.9588H158.788ZM55.7542 79.683H55.9586C56.214 79.683 56.2649 79.3564 56.2649 78.7651V75.49C56.2649 74.4414 56.214 74.3749 55.9586 74.3749H55.7542V74.1125H56.9792L59.2767 78.6356V75.2287C59.2767 74.5079 59.2767 74.3749 58.9186 74.3749H58.7151V74.1125H60.0429V74.3749H59.8902C59.5839 74.3749 59.533 74.572 59.533 75.2287V80.0107H59.125L56.5212 74.901V78.7651C56.5212 79.3564 56.5212 79.683 56.7766 79.683H57.032V79.9454H55.7551L55.7542 79.683ZM61.218 77.9124C61.218 79.2876 61.4225 79.8124 61.9841 79.8124C62.5967 79.8124 62.9538 79.2887 62.9538 78.5691H63.2092C63.2092 79.4847 62.6984 80.0749 61.9841 80.0749C61.0135 80.0749 60.5027 79.094 60.5027 77.9136C60.5027 76.7333 61.0135 75.7524 61.9841 75.7524C62.9029 75.7524 63.3119 76.9304 63.2601 77.9136L61.218 77.9124ZM62.5458 77.7153C62.5458 76.7321 62.3922 76.0125 61.8823 76.0125C61.4225 76.0125 61.2698 76.7309 61.218 77.7153H62.5458ZM65.6085 76.1431H64.8423V79.2876C64.8423 79.55 64.9441 79.6818 65.0977 79.6818C65.3531 79.6818 65.404 79.3552 65.404 78.961V78.8316H65.6594V78.961C65.6594 79.6177 65.5576 80.0749 64.8932 80.0749C64.4334 80.0749 64.2298 79.7483 64.2298 79.094V76.1443H63.6681V75.8818C64.2807 75.8818 64.587 75.2275 64.6378 74.5067H64.8423V75.8818H65.6085V76.1431ZM66.0174 79.55C66.6809 78.5014 67.2934 77.3234 67.906 76.1431H67.038C66.5273 76.1431 66.3737 76.4055 66.3237 77.061H66.1701V75.8806H68.6721V76.2072C68.0077 77.3876 67.4461 78.5014 66.8336 79.6818H67.7015C68.2631 79.6818 68.4676 79.4194 68.4676 78.6986H68.6721V79.9442H66.0174V79.55ZM74.0332 75.8818V76.1443H73.9305C73.8287 76.1443 73.7769 76.1443 73.5734 76.8651L73.0117 78.8316C72.864 79.2022 72.7607 79.5993 72.7054 80.0095H72.3992C72.3049 79.6348 72.2028 79.2633 72.0929 78.8957L71.4803 76.9292L70.8169 79.2234C70.7261 79.4748 70.6575 79.7385 70.6124 80.0095H70.3062C70.2553 79.7471 70.1526 79.4859 70.1017 79.2234L69.2846 76.4055C69.2328 76.2761 69.1829 76.1431 69.0293 76.1431H68.9266V75.8806H70.4079V76.1431H70.2035C70.1017 76.1431 69.9481 76.1431 69.9481 76.3402C69.9481 76.4055 69.999 76.6668 70.0499 76.7998L70.6624 78.8316L71.2749 76.7321C71.3258 76.5373 71.3767 76.4055 71.3767 76.2749C71.3767 76.2072 71.3258 76.1431 71.2231 76.1431H70.9169V75.8806H72.4482V76.1431H72.1928C72.091 76.1431 72.0392 76.1431 72.0392 76.3402C72.0392 76.4055 72.0392 76.6026 72.0901 76.7998L72.7027 78.8316H72.7536L73.2643 76.9292C73.3661 76.7321 73.4179 76.472 73.4179 76.3402C73.4179 76.2084 73.3661 76.1431 73.2134 76.1431H73.0089V75.8806L74.0332 75.8818ZM75.0547 77.9124C75.0547 79.2876 75.2083 79.8124 75.7691 79.8124C76.3816 79.8124 76.7906 79.2887 76.7906 78.5691H77.046C77.046 79.4847 76.4843 80.0749 75.77 80.0749C74.8003 80.0749 74.3404 79.094 74.3404 77.9136C74.3404 76.7333 74.8003 75.7524 75.77 75.7524C76.6888 75.7524 77.0978 76.9304 77.0978 77.9136L75.0547 77.9124ZM76.3816 77.7153C76.3298 76.7321 76.1771 76.0125 75.7172 76.0125C75.2074 76.0125 75.0538 76.7309 75.0538 77.7153H76.3816ZM77.5049 79.683H77.8112C78.0157 79.683 78.0157 79.5512 78.0157 79.2234V76.9969C78.0157 76.2761 78.0157 76.1431 77.8112 76.1431H77.5049V75.8806H78.2192C78.3728 75.8806 78.5255 75.8153 78.6273 75.7512V76.7321C78.8318 76.2084 79.138 75.7512 79.5979 75.7512C79.8524 75.7512 80.1586 76.0136 80.1586 76.4055C80.1586 76.7321 80.006 76.9292 79.7506 76.9292C79.5461 76.9292 79.3934 76.7998 79.3934 76.6026V76.3402L79.2916 76.2749C78.8836 76.2749 78.6782 76.8639 78.6782 78.3067V79.2222C78.6782 79.5488 78.7291 79.6818 78.8827 79.6818H79.2907V79.9442H77.503V79.683H77.5049ZM80.4149 79.683H80.6703C80.9257 79.683 80.9257 79.5512 80.9257 79.2234V74.768C80.9257 74.179 80.8739 74.1113 80.6703 74.1113H80.4149V73.8489H81.5382V77.5847H81.5891L82.5089 76.5361C82.6606 76.4043 82.7115 76.2737 82.7115 76.2072C82.7115 76.2072 82.6606 76.1419 82.5598 76.1419H82.457V75.8795H83.6322V76.1419H83.4786C83.2241 76.1419 83.1732 76.2737 82.9687 76.5361L82.1517 77.3876L83.2741 79.2876C83.4277 79.4847 83.5304 79.6818 83.6821 79.6818H83.8357V79.9442H82.3053V79.6818H82.457C82.5598 79.6818 82.5598 79.6818 82.5598 79.6165C82.5598 79.5488 82.5598 79.4847 82.5089 79.354L81.64 77.8459H81.5382V79.1569C81.5382 79.6165 81.5891 79.6806 81.7927 79.6806H81.9972V79.943H80.414L80.4149 79.683Z" fill="black"/>
<path id="Vector_5" fill-rule="evenodd" clip-rule="evenodd" d="M88.1753 74.0472C88.2281 74.3738 88.3289 74.6362 88.4316 74.9651L89.554 78.6998C89.8612 79.683 89.9621 79.683 90.1665 79.683H90.2693V79.9455H88.4816V79.683H88.6352C88.9405 79.683 88.9933 79.683 88.9933 79.4859C88.9933 79.4206 88.9933 79.2888 88.9405 79.094L88.5825 78.0455H86.8475L86.5931 78.6998C86.4904 79.094 86.4395 79.2888 86.4395 79.4206C86.4395 79.683 86.644 79.683 86.8475 79.683H86.9484V79.9455H85.6215V79.683H85.6724C85.8769 79.683 86.0305 79.6177 86.1841 79.1593L87.5609 74.8333C87.6636 74.5709 87.7673 74.3096 87.8172 74.0472H88.1753ZM88.5334 77.783L87.7164 75.2276L86.8994 77.783H88.5334Z" fill="#19938D"/>
<path id="Vector_6" fill-rule="evenodd" clip-rule="evenodd" d="M90.2193 79.683H90.5246C90.6782 79.683 90.7291 79.6177 90.7291 79.1593V74.8333C90.7291 74.179 90.7291 74.1125 90.5246 74.1125H90.2193V73.85H91.3925V79.1593C91.3925 79.6189 91.4453 79.683 91.597 79.683H91.9042V79.9454H90.2202L90.2193 79.683ZM94.2008 80.0749C93.8446 80.0749 93.4347 79.8801 93.2302 79.3564V80.9287C93.2302 81.3858 93.2829 81.4523 93.4865 81.4523H93.7409V81.7148H92.0569V81.4523H92.3622C92.5158 81.4523 92.6167 81.3846 92.6167 80.9287V76.9304C92.6167 76.2761 92.6167 76.1443 92.3622 76.1443H92.0569V75.8818H92.7703C92.9239 75.8818 93.0775 75.8165 93.1784 75.7524V76.6038H93.2292C93.3003 76.3486 93.4324 76.1287 93.6068 75.9758C93.7812 75.8228 93.9888 75.7446 94.1999 75.7524C95.1196 75.7524 95.425 76.9304 95.425 77.9136C95.4259 79.0263 95.0169 80.0749 94.2008 80.0749ZM94.7116 77.9124C94.7116 76.9292 94.558 76.1431 94.0463 76.1431C93.5364 76.1431 93.2292 76.6026 93.2292 77.9124C93.2292 79.0928 93.5364 79.6818 94.0463 79.6818C94.6088 79.683 94.7116 78.8969 94.7116 77.9124ZM95.783 79.683H96.0375C96.1911 79.683 96.2938 79.6177 96.2938 79.1593V76.668C96.2938 76.2761 96.2938 76.1443 96.0375 76.1443H95.783V75.8818H96.1911C96.4983 75.8818 96.8036 75.8165 96.9572 75.7524C96.9572 75.8818 96.9063 76.1443 96.9063 76.6038V79.1593C96.9063 79.6189 97.0072 79.683 97.1608 79.683H97.4153V79.9454H95.7812V79.683H95.783ZM96.6001 73.9819C96.8545 73.9819 97.059 74.2443 97.059 74.5709C97.059 74.8333 96.8545 75.0945 96.6001 75.0945C96.3456 75.0945 96.192 74.8321 96.192 74.5709C96.192 74.2443 96.3965 73.9819 96.6001 73.9819ZM97.6216 79.683H97.9288C98.1333 79.683 98.1333 79.5512 98.1333 79.2234V76.9969C98.1333 76.2761 98.1333 76.1431 97.9288 76.1431H97.6216V75.8807H97.9288C98.3368 75.8807 98.6422 75.8153 98.7458 75.7512V76.472C99.0003 76.0125 99.3583 75.7512 99.8173 75.7512C100.43 75.7512 100.788 76.1431 100.788 76.9969V79.0263C100.788 79.55 100.788 79.683 100.992 79.683H101.247V79.9454H99.6637V79.683H99.8682C100.123 79.683 100.123 79.5512 100.123 79.0263V77.1263C100.123 76.6668 100.022 76.1431 99.5628 76.1431C98.8976 76.1431 98.7967 77.061 98.7967 77.7153V79.2234C98.7967 79.55 98.7967 79.683 99.0012 79.683H99.2556V79.9454H97.6216V79.683ZM102.371 77.9124C102.371 79.2876 102.523 79.8124 103.084 79.8124C103.697 79.8124 104.106 79.2887 104.106 78.5691H104.36C104.36 79.4847 103.801 80.0749 103.084 80.0749C102.114 80.0749 101.655 79.094 101.655 77.9136C101.655 76.7333 102.114 75.7524 103.084 75.7524C104.004 75.7524 104.413 76.9304 104.413 77.9136L102.371 77.9124ZM103.697 77.7153C103.646 76.7321 103.493 76.0125 103.034 76.0125C102.522 76.0125 102.37 76.7309 102.37 77.7153H103.697ZM104.821 79.683H105.127C105.331 79.683 105.331 79.5512 105.331 79.2234V76.9969C105.331 76.2761 105.331 76.1431 105.127 76.1431H104.821V75.8807H105.535C105.688 75.8807 105.842 75.8153 105.943 75.7512V76.7321C106.147 76.2084 106.454 75.7512 106.913 75.7512C107.168 75.7512 107.475 76.0137 107.475 76.4055C107.475 76.7321 107.321 76.9292 107.067 76.9292C106.862 76.9292 106.659 76.7998 106.659 76.6026C106.659 76.4732 106.71 76.4055 106.71 76.3402C106.71 76.3402 106.607 76.2749 106.556 76.2749C106.198 76.2749 105.995 76.8639 105.995 78.3067V79.2222C105.995 79.5488 105.995 79.6818 106.199 79.6818H106.607V79.9442H104.821V79.683ZM112.478 75.4888H112.275C112.275 74.768 111.865 74.2431 111.254 74.2431C110.742 74.2431 110.283 74.5697 110.283 75.357C110.283 76.668 112.733 76.2084 112.733 78.3067C112.733 79.4205 112.018 80.0737 111.15 80.0737C110.896 80.0737 110.691 80.0084 110.487 79.9442C110.333 79.9442 110.23 79.8789 110.18 79.8789C110.026 79.8789 109.975 79.9442 109.975 80.0084H109.771V78.3708H109.975C110.129 79.2222 110.434 79.8112 111.15 79.8112C111.763 79.8112 112.172 79.4194 112.172 78.6332C112.172 77.1904 109.722 77.5182 109.722 75.75C109.722 74.635 110.385 73.9807 111.254 73.9807C111.61 73.9807 111.967 74.2431 112.172 74.2431C112.274 74.2431 112.274 74.1778 112.325 74.046H112.477L112.478 75.4888ZM115.952 78.5691C115.952 79.4847 115.44 80.0749 114.776 80.0749C113.806 80.0749 113.296 79.094 113.296 77.9136C113.296 76.7333 113.806 75.7524 114.776 75.7524C115.235 75.7524 115.848 76.0148 115.848 76.668C115.848 76.9304 115.694 77.1275 115.44 77.1275C115.235 77.1275 115.032 76.9304 115.032 76.668C115.032 76.4055 115.135 76.4055 115.135 76.2761C115.135 76.0136 114.878 76.0136 114.776 76.0136C114.215 76.0136 114.01 76.5373 114.01 77.9136C114.01 78.8316 114.164 79.8136 114.827 79.8136C115.389 79.8136 115.644 79.2246 115.644 78.5703L115.952 78.5691ZM116.257 79.683H116.564C116.769 79.683 116.769 79.5512 116.769 79.2234V74.768C116.769 74.179 116.769 74.1113 116.512 74.1113H116.258V73.8489H117.433V76.472C117.687 76.0125 117.995 75.7512 118.454 75.7512C119.067 75.7512 119.425 76.1431 119.425 76.9969V79.0263C119.425 79.55 119.425 79.683 119.63 79.683H119.884V79.9454H118.301V79.683H118.505C118.762 79.683 118.762 79.5512 118.762 79.0263V77.1263C118.762 76.6668 118.659 76.1431 118.2 76.1431C117.535 76.1431 117.434 77.061 117.434 77.7153V79.2234C117.434 79.55 117.485 79.683 117.638 79.683H117.944V79.9454H116.26V79.683H116.257ZM120.087 75.8818H120.394C120.699 75.8818 121.158 75.8165 121.312 75.7524C121.261 76.0148 121.261 76.2761 121.261 76.6038V78.5703C121.261 79.2246 121.362 79.6842 121.822 79.6842C122.332 79.6842 122.587 79.0952 122.587 78.1761V76.8651C122.587 76.2084 122.587 76.1443 122.382 76.1443H122.077V75.8818H122.382C122.689 75.8818 123.148 75.8165 123.302 75.7524C123.251 76.0148 123.251 76.2761 123.251 76.6038V79.0275C123.251 79.5512 123.251 79.6842 123.456 79.6842H123.761V79.9466H123.201C122.945 79.9466 122.74 79.9466 122.64 80.0119V79.2911C122.435 79.8148 122.078 80.0772 121.618 80.0772C120.801 80.0772 120.596 79.62 120.596 78.7662V76.9993C120.596 76.2785 120.596 76.1455 120.392 76.1455H120.085V75.8818H120.087ZM125.805 76.1431H125.092V79.2876C125.092 79.55 125.192 79.6818 125.346 79.6818C125.6 79.6818 125.653 79.3552 125.653 78.961V78.8316H125.908V78.961C125.908 79.6177 125.805 80.0749 125.142 80.0749C124.63 80.0749 124.426 79.7483 124.426 79.094V76.1443H123.916V75.8818C124.529 75.8818 124.836 75.2275 124.887 74.5067H125.092V75.8818H125.805V76.1431ZM126.213 79.55C126.901 78.4692 127.533 77.3311 128.103 76.1431H127.286C126.775 76.1431 126.571 76.4055 126.571 77.061H126.367V75.8807H128.92V76.2072C128.255 77.3876 127.643 78.5014 127.083 79.6818H127.9C128.512 79.6818 128.664 79.4194 128.717 78.6986H128.921V79.9442H126.214L126.213 79.55ZM131.114 79.2234C131.78 79.2234 132.392 79.4859 132.392 80.4691C132.392 81.4523 131.524 81.8442 130.809 81.8442C130.299 81.8442 129.379 81.7148 129.379 80.7957C129.379 80.272 129.687 79.8801 130.093 79.8801C129.838 79.7483 129.736 79.4859 129.736 79.1593C129.736 78.7651 129.888 78.5026 130.195 78.4385C129.787 78.1761 129.48 77.8495 129.48 77.1928C129.48 76.2773 130.093 75.7524 130.809 75.7524C130.912 75.7524 131.013 75.8177 131.114 75.8177C131.217 75.8177 131.321 75.883 131.371 75.883C131.575 75.883 131.729 75.7536 131.829 75.6883C131.964 75.565 132.124 75.4963 132.288 75.4912C132.493 75.4912 132.596 75.6883 132.596 75.9483C132.596 76.2108 132.493 76.4079 132.288 76.4079C131.983 76.4079 132.034 75.9483 131.932 75.9483C131.829 75.9483 131.728 76.016 131.625 76.0801C131.879 76.3426 132.084 76.7345 132.084 77.194C132.084 78.4397 131.166 78.5715 130.707 78.5715C130.145 78.6368 129.992 78.7009 129.992 78.8981C129.992 79.1605 130.145 79.2246 130.604 79.2246L131.114 79.2234ZM130.196 77.1916C130.196 77.783 130.299 78.3067 130.809 78.3067C131.321 78.3067 131.421 77.7153 131.421 77.1916C131.421 76.7321 131.321 76.0136 130.809 76.0136C130.247 76.0136 130.196 76.6026 130.196 77.1916ZM129.889 80.7315C129.889 81.3858 130.299 81.583 130.86 81.583C131.268 81.583 131.83 81.3858 131.83 80.7315C131.83 80.0107 131.371 79.9454 130.962 79.9454C130.35 79.9442 129.889 80.0749 129.889 80.7315ZM133.617 77.9124C133.617 79.2876 133.771 79.8124 134.383 79.8124C134.943 79.8124 135.352 79.2887 135.352 78.5691H135.608C135.608 79.4847 135.047 80.0749 134.383 80.0749C133.413 80.0749 132.901 79.094 132.901 77.9136C132.901 76.7333 133.413 75.7524 134.383 75.7524C135.251 75.7524 135.659 76.9304 135.659 77.9136L133.617 77.9124ZM134.944 77.7153C134.944 76.7321 134.792 76.0125 134.281 76.0125C133.771 76.0125 133.617 76.7309 133.617 77.7153H134.944ZM138.213 80.0749C137.752 80.0749 137.447 79.8124 137.242 79.2887H137.192V79.9454H136.067V79.683H136.373C136.577 79.683 136.629 79.5512 136.629 79.2234V74.768C136.629 74.179 136.576 74.1113 136.373 74.1113H136.067V73.8489H137.242V76.5373C137.333 76.3048 137.471 76.1086 137.642 75.97C137.813 75.8314 138.011 75.7557 138.213 75.7512C139.131 75.7512 139.438 76.9292 139.438 77.9124C139.438 79.0263 139.03 80.0749 138.213 80.0749ZM138.059 79.683C138.621 79.683 138.723 78.8969 138.723 77.9136C138.723 76.9304 138.569 76.1443 138.059 76.1443C137.548 76.1443 137.242 76.6038 137.242 77.9136C137.242 79.094 137.548 79.683 138.059 79.683ZM139.794 79.683H140.051C140.202 79.683 140.305 79.6177 140.305 79.1593V76.668C140.305 76.2761 140.305 76.1443 140.051 76.1443H139.794V75.8818H140.202C140.51 75.8818 140.815 75.8165 140.969 75.7524C140.969 75.8818 140.918 76.1443 140.918 76.6038V79.1593C140.918 79.6189 141.019 79.683 141.172 79.683H141.427V79.9454H139.793V79.683H139.794ZM140.611 73.9819C140.868 73.9819 141.072 74.2443 141.072 74.5709C141.072 74.8333 140.868 75.0945 140.611 75.0945C140.558 75.0955 140.504 75.0826 140.454 75.0566C140.405 75.0306 140.359 74.9921 140.321 74.9433C140.283 74.8945 140.253 74.8364 140.233 74.7724C140.213 74.7084 140.203 74.6399 140.203 74.5709C140.202 74.2443 140.407 73.9819 140.611 73.9819ZM142.502 77.9124C142.502 79.2876 142.706 79.8124 143.268 79.8124C143.88 79.8124 144.237 79.2887 144.237 78.5691H144.493C144.493 79.4847 143.981 80.0749 143.268 80.0749C142.297 80.0749 141.786 79.094 141.786 77.9136C141.786 76.7333 142.297 75.7524 143.268 75.7524C144.186 75.7524 144.595 76.9304 144.544 77.9136L142.502 77.9124ZM143.88 77.7153C143.828 76.7321 143.676 76.0125 143.215 76.0125C142.705 76.0125 142.552 76.7309 142.502 77.7153H143.88ZM146.891 76.1431H146.127V79.2876C146.127 79.55 146.228 79.6818 146.432 79.6818C146.687 79.6818 146.687 79.3552 146.687 78.961V78.8316H146.943V78.961C146.943 79.6177 146.84 80.0749 146.228 80.0749C145.718 80.0749 145.515 79.7483 145.515 79.094V76.1443H144.953V75.8818C145.565 75.8818 145.923 75.2275 145.923 74.5067H146.128V75.8818H146.892V76.1431H146.891ZM148.066 77.9124C148.066 79.2876 148.219 79.8124 148.832 79.8124C149.393 79.8124 149.802 79.2887 149.802 78.5691H150.057C150.057 79.4847 149.495 80.0749 148.832 80.0749C147.861 80.0749 147.351 79.094 147.351 77.9136C147.351 76.7333 147.861 75.7524 148.832 75.7524C149.7 75.7524 150.108 76.9304 150.108 77.9136L148.066 77.9124ZM149.394 77.7153C149.394 76.7321 149.241 76.0125 148.731 76.0125C148.219 76.0125 148.066 76.7309 148.066 77.7153H149.394ZM55.9078 71.164H56.1122C56.3667 71.164 56.4185 71.0345 56.4185 70.7721V66.3143C56.4185 65.8571 56.3667 65.7906 56.0604 65.7906H55.9068V65.5958H58.0008C58.7669 65.5958 59.4303 65.9224 59.4303 66.9068C59.4303 67.6252 58.8687 68.2178 58.307 68.3472C59.0732 68.5444 59.2258 68.7415 59.2767 69.8553V70.9039C59.2767 71.0357 59.3276 71.1663 59.4303 71.1663C59.5839 71.1663 59.6857 70.9692 59.7366 70.7745L59.9411 70.8398C59.7875 71.2993 59.5839 71.5606 59.2268 71.5606C58.6651 71.5606 58.5633 70.9692 58.5124 70.4455L58.4615 69.3317C58.4615 68.6774 58.2062 68.4802 57.5936 68.4802H57.1328V70.7068C57.1328 71.0357 57.1837 71.1663 57.4391 71.1663H57.6436V71.4288H55.9078V71.164ZM57.1328 68.2154H57.6436C58.2052 68.2154 58.6133 67.8865 58.6133 67.0351C58.6133 66.1195 58.2561 65.7894 57.6436 65.7894H57.1328V68.2154ZM61.0135 69.3946C61.0135 70.7721 61.1671 71.297 61.7278 71.297C62.3404 71.297 62.7493 70.7733 62.7493 69.986H63.0047C63.0047 70.9668 62.4431 71.5582 61.7287 71.5582C60.759 71.5582 60.2992 70.575 60.2992 69.3946C60.2992 68.2166 60.759 67.2334 61.7287 67.2334C62.6476 67.2334 63.0565 68.3472 63.0565 69.3946H61.0135ZM62.3404 69.1322C62.3404 68.1513 62.1877 67.4946 61.6769 67.4946C61.1671 67.4946 61.0135 68.1513 61.0135 69.1322H62.3404ZM65.3531 67.6241H64.6388V70.7709C64.6388 71.0333 64.7406 71.1628 64.8941 71.1628C65.1495 71.1628 65.2004 70.8362 65.2004 70.3767V70.2472H65.4558V70.442C65.4558 71.0986 65.354 71.557 64.6897 71.557C64.1789 71.557 63.9753 71.2281 63.9753 70.5738V67.6241H63.4646V67.364C64.0771 67.364 64.3834 66.6432 64.4352 65.9865H64.6397V67.364H65.354L65.3531 67.6241ZM66.5273 69.3946C66.5273 70.7721 66.7318 71.297 67.2934 71.297C67.906 71.297 68.264 70.7733 68.264 69.986H68.5703C68.5703 70.9668 68.0087 71.5582 67.2934 71.5582C66.3237 71.5582 65.813 70.575 65.813 69.3946C65.813 68.2166 66.3237 67.2334 67.2934 67.2334C68.2122 67.2334 68.6212 68.3472 68.6212 69.3946H66.5273ZM67.906 69.1322C67.8551 68.1513 67.7015 67.4946 67.2425 67.4946C66.7318 67.4946 66.5791 68.1513 66.5282 69.1322H67.906ZM72.2456 67.2322C72.6027 67.2322 72.9599 67.4293 73.1644 67.953H73.2153V66.1836C73.2153 65.66 73.1644 65.527 73.0108 65.527H72.7054V65.3322H73.8287V70.442C73.8287 71.0986 73.8796 71.1628 74.0832 71.1628H74.3386V71.4252H73.2153V70.7709C73.0108 71.2946 72.6536 71.557 72.2456 71.557C71.4285 71.557 71.0205 70.5085 71.0205 69.3934C71.0205 68.4114 71.3268 67.2322 72.2456 67.2322ZM73.2162 69.3946C73.2162 68.0836 72.9099 67.6253 72.3992 67.6253C71.8884 67.6253 71.7357 68.4114 71.7357 69.3946C71.7357 70.3778 71.8375 71.164 72.3992 71.164C72.9099 71.164 73.2162 70.575 73.2162 69.3946ZM75.4628 69.3946C75.4628 70.7721 75.6164 71.297 76.1771 71.297C76.7897 71.297 77.1986 70.7733 77.1986 69.986H77.454C77.454 70.9668 76.8924 71.5582 76.178 71.5582C75.2083 71.5582 74.7485 70.575 74.7485 69.3946C74.7485 68.2166 75.2083 67.2334 76.178 67.2334C77.0968 67.2334 77.5058 68.3472 77.5058 69.3946H75.4628ZM76.7906 69.1322C76.7906 68.1513 76.637 67.4946 76.1271 67.4946C75.6173 67.4946 75.4637 68.1513 75.4637 69.1322H76.7906ZM77.913 71.164H78.1683C78.3219 71.164 78.4237 71.0986 78.4237 70.6403V66.3143C78.4237 65.66 78.3728 65.5282 78.1683 65.5282H77.913V65.3334H79.0362V70.6403C79.0362 71.0998 79.138 71.164 79.2916 71.164H79.5461V71.4264H77.912L77.913 71.164ZM79.7515 71.164H80.0069C80.1596 71.164 80.2613 71.0986 80.2613 70.6403V66.3143C80.2613 65.66 80.2104 65.5282 80.0069 65.5282H79.7515V65.3334H80.8748V70.6403C80.8748 71.0998 80.9266 71.164 81.1302 71.164H81.3856V71.4264H79.7515V71.164ZM82.457 69.3946C82.457 70.7721 82.6615 71.297 83.2232 71.297C83.8357 71.297 84.1938 70.7733 84.1938 69.986H84.4483C84.4483 70.9668 83.9384 71.5582 83.2232 71.5582C82.2526 71.5582 81.7427 70.575 81.7427 69.3946C81.7427 68.2166 82.2526 67.2334 83.2232 67.2334C84.1429 67.2334 84.5519 68.3472 84.4991 69.3946H82.457ZM83.7858 69.1322C83.7858 68.1513 83.6322 67.4946 83.1223 67.4946C82.6615 67.4946 82.5098 68.1513 82.457 69.1322H83.7858ZM89.0951 65.5282C89.1459 65.7906 89.2487 66.1195 89.3495 66.3819L90.4737 70.1807C90.7791 71.164 90.9327 71.164 91.1372 71.164H91.1881V71.4264H89.4531V71.164H89.6067C89.8612 71.164 89.9121 71.0986 89.9121 70.9668C89.9121 70.9015 89.9121 70.7721 89.8612 70.575L89.5031 69.5264H87.7682L87.5619 70.1807C87.4101 70.575 87.3574 70.7721 87.3574 70.9015C87.3574 71.164 87.5619 71.164 87.7673 71.164H87.8681V71.4264H86.5394V71.164H86.6421C86.7957 71.164 87.0002 71.0986 87.152 70.6403L88.5306 66.3143C88.6333 66.0518 88.6842 65.7906 88.7351 65.5282H89.0951ZM89.4531 69.264L88.687 66.7085L87.8191 69.264H89.4531Z" fill="black"/>
<path id="Vector_7" fill-rule="evenodd" clip-rule="evenodd" d="M91.1881 71.164H91.4953C91.6997 71.164 91.6997 71.0345 91.6997 70.7044V68.4779C91.6997 67.7571 91.6997 67.6241 91.4953 67.6241H91.1881V67.364H91.9033C92.0569 67.364 92.2086 67.2963 92.3114 67.2322V68.2155C92.5158 67.6918 92.8212 67.2322 93.282 67.2322C93.5364 67.2322 93.8436 67.4293 93.8436 67.8865C93.8436 68.2155 93.69 68.4102 93.4337 68.4102C93.2292 68.4102 93.0775 68.2808 93.0775 68.0836V67.8212C93.0775 67.7559 92.9748 67.7559 92.9748 67.7559C92.5667 67.7559 92.3622 68.3449 92.3622 69.7877V70.7032C92.3622 71.0322 92.4131 71.1628 92.5667 71.1628H92.9748V71.4252H91.1871L91.1881 71.164ZM94.9669 69.3946C94.9669 70.7721 95.1714 71.297 95.7331 71.297C96.3456 71.297 96.7037 70.7733 96.7037 69.986H96.9582C96.9582 70.9669 96.4465 71.5582 95.7331 71.5582C94.7624 71.5582 94.2526 70.575 94.2526 69.3946C94.2526 68.2166 94.7624 67.2334 95.7331 67.2334C96.601 67.2334 97.0599 68.3473 97.009 69.3946H94.9669ZM96.2947 69.1322C96.2947 68.1513 96.1411 67.4946 95.6294 67.4946C95.1705 67.4946 95.0169 68.1513 94.966 69.1322H96.2947ZM98.3368 69.3946C98.3368 70.7721 98.4886 71.297 99.1011 71.297C99.6628 71.297 100.072 70.7733 100.072 69.986H100.328C100.328 70.9669 99.7664 71.5582 99.1011 71.5582C98.1323 71.5582 97.6207 70.575 97.6207 69.3946C97.6207 68.2166 98.1323 67.2334 99.1011 67.2334C99.97 67.2334 100.379 68.3473 100.379 69.3946H98.3368ZM99.6637 69.1322C99.6637 68.1513 99.5101 67.4946 99.0003 67.4946C98.4886 67.4946 98.3368 68.1513 98.3368 69.1322H99.6637ZM102.726 71.164H102.931C103.187 71.164 103.238 71.0345 103.238 70.7721V66.3143C103.238 65.8571 103.187 65.7906 102.931 65.7906H102.726V65.5959H104.514C105.28 65.5959 106.148 65.8583 106.148 67.1016C106.148 68.2819 105.23 68.6762 104.565 68.6762H103.952V70.7056C103.952 71.0345 104.005 71.1652 104.31 71.1652H104.515V71.4276H102.727L102.726 71.164ZM103.952 68.4779H104.413C105.026 68.4779 105.382 67.8212 105.382 67.1004C105.382 66.249 104.923 65.7894 104.31 65.7894H103.952V68.4779ZM106.455 71.164H106.761C106.965 71.164 106.965 71.0345 106.965 70.7044V68.4779C106.965 67.7571 106.965 67.6241 106.761 67.6241H106.455V67.364H107.169C107.322 67.364 107.476 67.2963 107.577 67.2322V68.2155H107.628C107.781 67.6918 108.088 67.2322 108.547 67.2322C108.855 67.2322 109.109 67.4293 109.109 67.8865C109.109 68.2155 108.955 68.4102 108.701 68.4102C108.496 68.4102 108.343 68.2808 108.343 68.0836V67.8212C108.343 67.7559 108.292 67.7559 108.24 67.7559C107.834 67.7559 107.628 68.3449 107.628 69.7877V70.7032C107.628 71.0322 107.68 71.1628 107.834 71.1628H108.24V71.4252H106.454L106.455 71.164ZM110.998 71.5582C110.028 71.5582 109.518 70.575 109.518 69.3946C109.518 68.2166 110.028 67.2334 110.998 67.2334C111.969 67.2334 112.479 68.2166 112.479 69.3946C112.478 70.575 111.969 71.5582 110.998 71.5582ZM110.998 67.4946C110.437 67.4946 110.232 68.0183 110.232 69.3946C110.232 70.7721 110.437 71.297 110.998 71.297C111.56 71.297 111.765 70.7733 111.765 69.3946C111.765 68.0183 111.56 67.4946 110.998 67.4946ZM114.726 67.6241H114.011V70.7709C114.011 71.0334 114.062 71.1628 114.266 71.1628C114.522 71.1628 114.573 70.8362 114.573 70.3767V70.2472H114.827V70.442C114.827 71.0987 114.726 71.557 114.061 71.557C113.551 71.557 113.348 71.2281 113.348 70.5738V67.6241H112.836V67.364C113.398 67.364 113.756 66.6432 113.807 65.9865H114.011V67.364H114.726V67.6241ZM115.9 69.3946C115.9 70.7721 116.104 71.297 116.666 71.297C117.278 71.297 117.636 70.7733 117.636 69.986H117.891C117.891 70.9669 117.381 71.5582 116.666 71.5582C115.695 71.5582 115.185 70.575 115.185 69.3946C115.185 68.2166 115.695 67.2334 116.666 67.2334C117.586 67.2334 117.995 68.3473 117.942 69.3946H115.9ZM117.228 69.1322C117.228 68.1513 117.074 67.4946 116.564 67.4946C116.103 67.4946 115.952 68.1513 115.899 69.1322H117.228ZM120.291 67.6241H119.525V70.7709C119.525 71.0334 119.628 71.1628 119.832 71.1628C120.037 71.1628 120.087 70.8362 120.087 70.3767V70.2472H120.341V70.442C120.341 71.0987 120.24 71.557 119.628 71.557C119.116 71.557 118.912 71.2281 118.912 70.5738V67.6241H118.353V67.364C118.965 67.364 119.321 66.6432 119.321 65.9865H119.526V67.364H120.292V67.6241H120.291ZM122.436 67.6241H121.721V70.7709C121.721 71.0334 121.823 71.1628 121.975 71.1628C122.231 71.1628 122.282 70.8362 122.282 70.3767V70.2472H122.537V70.442C122.537 71.0987 122.436 71.557 121.771 71.557C121.261 71.557 121.107 71.2281 121.107 70.5738V67.6241H120.546V67.364C121.158 67.364 121.465 66.6432 121.516 65.9865H121.721V67.364H122.436V67.6241ZM123.661 69.3946C123.661 70.7721 123.815 71.297 124.374 71.297C124.987 71.297 125.396 70.7733 125.396 69.986H125.652C125.652 70.9669 125.091 71.5582 124.374 71.5582C123.404 71.5582 122.945 70.575 122.945 69.3946C122.945 68.2166 123.404 67.2334 124.374 67.2334C125.294 67.2334 125.703 68.3473 125.703 69.3946H123.661ZM124.988 69.1322C124.937 68.1513 124.783 67.4946 124.324 67.4946C123.815 67.4946 123.661 68.1513 123.661 69.1322H124.988Z" fill="black"/>
<path id="Vector_8" fill-rule="evenodd" clip-rule="evenodd" d="M130.247 65.5282C130.35 65.7906 130.452 66.1196 130.502 66.382L131.677 70.1808C131.933 71.164 132.085 71.164 132.289 71.164H132.342V71.4264H130.605V71.164H130.759C131.064 71.164 131.115 71.0987 131.115 70.9669C131.115 70.9016 131.064 70.7721 131.014 70.575L130.709 69.5265H128.921L128.717 70.1808C128.563 70.575 128.563 70.7721 128.563 70.9016C128.563 71.164 128.717 71.164 128.971 71.164H129.022V71.4264H127.746V71.164H127.797C128.002 71.164 128.155 71.0987 128.309 70.6403L129.687 66.3143C129.788 66.0519 129.89 65.7906 129.942 65.5282H130.247ZM130.604 69.264L129.838 66.7086L129.021 69.264H130.604Z" fill="#19938D"/>
<path id="Vector_9" fill-rule="evenodd" clip-rule="evenodd" d="M132.341 71.1639H132.596C132.8 71.1639 132.85 71.0986 132.85 70.6403V66.3142C132.85 65.6599 132.799 65.5281 132.646 65.5281H132.34V65.3334H133.514V70.6403C133.514 71.0998 133.566 71.1639 133.718 71.1639H134.025V71.4264H132.341V71.1639ZM136.323 71.5582C135.965 71.5582 135.557 71.3611 135.352 70.8374V72.4096C135.352 72.8692 135.405 72.9333 135.608 72.9333H135.863V73.1957H134.179V72.9333H134.484C134.638 72.9333 134.689 72.868 134.689 72.4096V68.346C134.689 67.757 134.74 67.6252 134.484 67.6252H134.179V67.3652H134.892C135.046 67.3652 135.199 67.2975 135.3 67.2334V68.0848H135.351C135.422 67.8295 135.554 67.6097 135.729 67.4567C135.903 67.3038 136.111 67.2256 136.322 67.2334C137.241 67.2334 137.547 68.4113 137.547 69.3946C137.548 70.5096 137.14 71.5582 136.323 71.5582ZM136.834 69.3946C136.834 68.4113 136.681 67.6252 136.171 67.6252C135.659 67.6252 135.352 68.0848 135.352 69.3946C135.352 70.5749 135.659 71.1639 136.171 71.1639C136.731 71.1639 136.834 70.3778 136.834 69.3946ZM137.906 71.1639H138.16C138.314 71.1639 138.417 71.0986 138.417 70.6403V68.1513C138.417 67.757 138.417 67.6252 138.16 67.6252H137.906V67.3652H138.264C138.569 67.3652 138.927 67.2975 139.081 67.2334C139.03 67.3652 139.03 67.6252 139.03 68.0848V70.6403C139.03 71.0998 139.081 71.1639 139.285 71.1639H139.539V71.4264H137.905L137.906 71.1639ZM138.723 65.4628C138.927 65.4628 139.131 65.7252 139.131 65.9865C139.131 66.313 138.977 66.5779 138.723 66.5779C138.468 66.5779 138.264 66.313 138.264 65.9865C138.264 65.7252 138.467 65.4628 138.723 65.4628ZM139.743 71.1639H139.998C140.254 71.1639 140.254 71.0345 140.254 70.7044V68.4778C140.254 67.757 140.201 67.624 140.05 67.624H139.743V67.364H139.997C140.458 67.364 140.712 67.2963 140.866 67.2322V67.953C141.12 67.4934 141.478 67.2322 141.887 67.2322C142.5 67.2322 142.909 67.624 142.909 68.4101V70.5096C142.909 71.0333 142.909 71.1639 143.113 71.1639H143.368V71.4264H141.734V71.1639H141.988C142.245 71.1639 142.245 71.0345 142.245 70.5096V68.6073C142.245 68.0836 142.142 67.624 141.63 67.624C141.018 67.624 140.866 68.4778 140.866 69.1963V70.7044C140.866 71.0333 140.917 71.1639 141.12 71.1639H141.375V71.4264H139.741V71.1639H139.743ZM144.44 69.3946C144.44 70.7721 144.645 71.2969 145.206 71.2969C145.819 71.2969 146.177 70.7732 146.177 69.9859H146.431C146.431 70.9668 145.922 71.5582 145.206 71.5582C144.236 71.5582 143.726 70.5749 143.726 69.3946C143.726 68.2166 144.236 67.2334 145.206 67.2334C146.126 67.2334 146.535 68.3472 146.482 69.3946H144.44ZM145.769 69.1321C145.769 68.1513 145.615 67.4946 145.106 67.4946C144.645 67.4946 144.493 68.1513 144.44 69.1321H145.769ZM56.0105 88.3967H56.214C56.4694 88.3967 56.4694 88.202 56.4694 87.4812V83.4829C56.4694 83.1564 56.4694 83.0257 56.214 83.0257H56.0105V82.8286H57.2355C57.2864 83.0257 57.3891 83.3523 57.4909 83.68L58.6651 87.0869L59.7884 83.6147C59.8902 83.2882 59.9929 83.0257 60.0438 82.8286H61.2698V83.0257H61.0144C60.8099 83.0257 60.759 83.2205 60.759 83.5494V87.6106C60.759 88.202 60.759 88.3967 61.0653 88.3967H61.2698V88.6592H59.534V88.3967H59.7893C60.0447 88.3967 60.0447 88.3314 60.0447 87.6106V83.6788L58.5134 88.3314H58.308L56.7257 83.6788V87.48C56.7257 88.1343 56.7766 88.3955 57.0829 88.3955H57.2864V88.658H56.0105V88.3967ZM61.5243 88.3967H61.8305C62.0859 88.3967 62.0859 88.2673 62.0859 87.9395V85.7106C62.0859 84.9898 62.0341 84.8592 61.8814 84.8592H61.5233V84.5968H62.2386C62.3922 84.5968 62.5448 84.5291 62.6984 84.465V85.4482C62.852 84.9245 63.1574 84.465 63.6173 84.465C63.9235 84.465 64.1789 84.6621 64.1789 85.1216C64.1789 85.4482 64.0253 85.6453 63.7699 85.6453C63.6173 85.6453 63.4128 85.5135 63.4128 85.3188V85.054C63.4128 84.9887 63.3619 84.9886 63.311 84.9886C62.9029 84.9886 62.6984 85.58 62.6984 87.0204V87.9384C62.6984 88.2649 62.7493 88.3955 62.9538 88.3955H63.311V88.658H61.5233L61.5243 88.3967ZM65.3531 86.6286C65.3531 88.0037 65.5067 88.5285 66.0674 88.5285C66.68 88.5285 67.0889 88.0049 67.0889 87.2176H67.3443C67.3443 88.2008 66.7827 88.7898 66.0674 88.7898C65.0977 88.7898 64.6378 87.8066 64.6378 86.6286C64.6378 85.4482 65.0977 84.465 66.0674 84.465C66.9862 84.465 67.3952 85.58 67.3952 86.6286H65.3531ZM66.6809 86.3673C66.63 85.3841 66.4764 84.7274 66.0175 84.7274C65.5067 84.7274 65.3531 85.3841 65.3531 86.3673H66.6809ZM67.906 88.2661C68.593 87.1846 69.2242 86.0465 69.7954 84.8592H68.9784C68.4676 84.8592 68.2641 85.1216 68.2641 85.7106H68.0596V84.5968H70.6124V84.9233C69.9539 86.0395 69.3405 87.1984 68.7748 88.3955H69.5918C70.2044 88.3955 70.358 88.1331 70.4089 87.4147H70.6134V88.658H67.9069L67.906 88.2661ZM74.2886 87.7424C74.2886 88.3967 74.1868 88.791 73.6252 88.791C73.4942 88.7909 73.3662 88.7411 73.2572 88.648C73.1483 88.5548 73.0632 88.4223 73.0126 88.2673C72.859 88.6592 72.5028 88.791 72.1447 88.791C71.5831 88.791 71.175 88.3967 71.175 87.6106C71.175 86.6951 71.992 86.2355 72.6555 86.2355H73.0126V85.5147C73.0126 85.0552 72.9617 84.7286 72.5528 84.7286C72.451 84.7286 72.042 84.7963 72.042 84.991C72.042 85.0563 72.1438 85.1881 72.1438 85.3853C72.1449 85.4458 72.1365 85.506 72.1189 85.5622C72.1014 85.6184 72.0751 85.6695 72.0417 85.7122C72.0083 85.755 71.9684 85.7886 71.9246 85.811C71.8807 85.8334 71.8338 85.8441 71.7866 85.8425C71.7329 85.8437 71.6796 85.8311 71.6297 85.8054C71.5799 85.7797 71.5346 85.7414 71.4965 85.6928C71.4585 85.6441 71.4284 85.5862 71.4081 85.5223C71.3879 85.4585 71.3778 85.3901 71.3786 85.3211C71.3786 84.6003 72.1956 84.4673 72.5528 84.4673C73.2162 84.4673 73.6761 84.7298 73.6761 85.6477V88.0714C73.6761 88.2685 73.6761 88.3979 73.8297 88.3979C74.0841 88.3979 74.0841 88.0061 74.0841 87.7436V87.5465H74.2886V87.7424ZM73.0117 86.4968C72.9099 86.4968 72.8081 86.4315 72.7054 86.4315C72.1438 86.4315 71.8375 86.9551 71.8375 87.6094C71.8375 88.1331 71.9911 88.4632 72.3992 88.4632C72.5609 88.4602 72.7153 88.3764 72.8297 88.2296C72.944 88.0828 73.0093 87.8847 73.0117 87.6771V86.4968ZM83.6821 87.7424C83.6821 88.3967 83.5304 88.791 83.0187 88.791C82.7115 88.791 82.457 88.5939 82.4062 88.2673C82.2017 88.6592 81.8963 88.791 81.5382 88.791C80.9766 88.791 80.5167 88.3967 80.5167 87.6106C80.5167 86.6951 81.3846 86.2355 81.9972 86.2355H82.4052V85.5147C82.4052 85.0552 82.3543 84.7286 81.8954 84.7286C81.7918 84.7286 81.4346 84.7963 81.4346 84.991C81.4346 85.0563 81.5364 85.1881 81.5364 85.3853C81.5364 85.6477 81.3319 85.8425 81.1783 85.8425C80.9238 85.8425 80.7194 85.5824 80.7194 85.3211C80.7194 84.6003 81.5873 84.4673 81.8945 84.4673C82.6079 84.4673 83.0168 84.7298 83.0168 85.6477V88.0714C83.0168 88.2685 83.0677 88.3979 83.2213 88.3979C83.4258 88.3979 83.4758 88.0061 83.4758 87.7436V87.5465H83.6803V87.7424H83.6821ZM82.4062 86.4968C82.3053 86.4968 82.1517 86.4315 82.0481 86.4315C81.5382 86.4315 81.232 86.9551 81.232 87.6094C81.232 88.1331 81.3856 88.4632 81.7927 88.4632C82.099 88.4632 82.4062 88.069 82.4062 87.6771V86.4968ZM83.8357 84.5968H85.368V84.8592H85.1117C84.9599 84.8592 84.9072 84.8592 84.9072 85.054C84.9072 85.1217 84.9599 85.3188 85.0099 85.5135L85.6733 87.6106L86.2859 85.5812C86.3531 85.4192 86.3883 85.2386 86.3886 85.0551C86.3886 84.8604 86.3359 84.8604 86.1841 84.8604H86.0305V84.598H87.0011V84.8604H86.9484C86.7966 84.8604 86.7439 84.9898 86.5922 85.4494L85.826 87.873C85.7751 88.1355 85.6724 88.4644 85.6215 88.7269H85.3143C85.2349 88.4397 85.1501 88.155 85.0599 87.873L84.3465 85.5812C84.142 84.9245 84.0902 84.8604 83.9384 84.8604H83.8357V84.5968ZM90.5246 87.7424C90.5246 88.3967 90.371 88.791 89.8612 88.791C89.554 88.791 89.3495 88.5939 89.2487 88.2673C89.0442 88.6592 88.737 88.791 88.3807 88.791C87.8191 88.791 87.3583 88.3967 87.3583 87.6106C87.3583 86.6951 88.2271 86.2355 88.8406 86.2355H89.2487V85.5147C89.2487 85.0552 89.1959 84.7286 88.737 84.7286C88.6361 84.7286 88.278 84.7963 88.278 84.991C88.278 85.0563 88.3807 85.1881 88.3807 85.3853C88.3807 85.6477 88.1744 85.8425 88.0227 85.8425C87.7682 85.8425 87.5619 85.5824 87.5619 85.3211C87.5619 84.6003 88.4307 84.4673 88.737 84.4673C89.4522 84.4673 89.8612 84.7298 89.8612 85.6477V88.0714C89.8612 88.2685 89.9121 88.3979 90.0657 88.3979C90.2702 88.3979 90.3201 88.0061 90.3201 87.7436V87.5465H90.5246V87.7424ZM89.2487 86.4968C89.146 86.4968 88.9942 86.4315 88.8906 86.4315C88.3807 86.4315 88.0735 86.9551 88.0735 87.6094C88.0735 88.1331 88.2271 88.4632 88.6352 88.4632C88.9405 88.4632 89.2477 88.069 89.2477 87.6771L89.2487 86.4968ZM90.7291 88.3967H91.0363C91.2908 88.3967 91.2908 88.2673 91.2908 87.9395V85.7106C91.2908 84.9898 91.2399 84.8592 91.0863 84.8592H90.7282V84.5968H91.4434C91.5952 84.5968 91.7488 84.5291 91.9024 84.465V85.4482C92.056 84.9245 92.3613 84.465 92.8203 84.465C93.1275 84.465 93.3819 84.6621 93.3819 85.1216C93.3819 85.4482 93.2283 85.6453 92.9739 85.6453C92.8203 85.6453 92.6158 85.5135 92.6158 85.3188V85.054C92.6158 84.9887 92.5649 84.9886 92.5149 84.9886C92.1069 84.9886 91.9024 85.58 91.9024 87.0204V87.9384C91.9024 88.2649 91.9533 88.3955 92.1568 88.3955H92.5149V88.658H90.7273V88.3967H90.7291ZM95.2741 88.791C94.3035 88.791 93.8446 87.8077 93.8446 86.6298C93.8446 85.4494 94.3035 84.4661 95.2741 84.4661C96.2429 84.4661 96.7546 85.4494 96.7546 86.6298C96.7537 87.8066 96.2429 88.791 95.2741 88.791ZM95.2741 84.7274C94.7125 84.7274 94.5589 85.2511 94.5589 86.6298C94.5589 88.0049 94.7125 88.5297 95.2741 88.5297C95.8339 88.5297 96.0384 88.0061 96.0384 86.6298C96.0384 85.2511 95.8339 84.7274 95.2741 84.7274ZM97.059 84.5968H98.5913V84.8592H98.3368C98.1832 84.8592 98.1323 84.8592 98.1323 85.054C98.1323 85.1217 98.1832 85.3188 98.2332 85.5135L98.8966 87.6106L99.5092 85.5812C99.5763 85.4192 99.6116 85.2386 99.6119 85.0551C99.6119 84.8604 99.561 84.8604 99.4074 84.8604H99.2538V84.598H100.224V84.8604H100.174C100.02 84.8604 99.969 84.9898 99.8154 85.4494L99.0493 87.873C98.9984 88.1355 98.8957 88.4644 98.8448 88.7269H98.5395C98.4585 88.4401 98.373 88.1554 98.2832 87.873L97.5698 85.5812C97.3653 84.9245 97.3153 84.8604 97.1617 84.8604H97.059V84.5968ZM103.748 87.7424C103.748 88.3967 103.596 88.791 103.084 88.791C102.952 88.7997 102.821 88.7535 102.711 88.6591C102.6 88.5648 102.517 88.4274 102.472 88.2673C102.267 88.6592 101.962 88.791 101.604 88.791C101.042 88.791 100.583 88.3967 100.583 87.6106C100.583 86.6951 101.45 86.2355 102.063 86.2355H102.471V85.5147C102.471 85.0552 102.42 84.7286 101.961 84.7286C101.858 84.7286 101.5 84.7963 101.5 84.991C101.5 85.0563 101.603 85.1881 101.603 85.3853C101.603 85.6477 101.399 85.8425 101.245 85.8425C100.991 85.8425 100.786 85.5824 100.786 85.3211C100.786 84.6003 101.654 84.4673 101.961 84.4673C102.675 84.4673 103.084 84.7298 103.084 85.6477V88.0714C103.084 88.2685 103.134 88.3979 103.288 88.3979C103.493 88.3979 103.543 88.0061 103.543 87.7436V87.5465H103.747L103.748 87.7424ZM102.472 86.4968C102.371 86.4968 102.217 86.4315 102.114 86.4315C101.604 86.4315 101.297 86.9551 101.297 87.6094C101.297 88.1331 101.45 88.4632 101.858 88.4632C102.166 88.4632 102.471 88.069 102.471 87.6771L102.472 86.4968ZM103.952 88.3967H104.26C104.514 88.3967 104.514 88.2673 104.514 87.9395V85.7106C104.514 84.9898 104.463 84.8592 104.31 84.8592H103.951V84.5968H104.259C104.718 84.5968 104.972 84.5291 105.127 84.465V85.1858C105.381 84.7262 105.688 84.465 106.148 84.465C106.761 84.465 107.119 84.8592 107.119 85.6453V87.7424C107.119 88.2661 107.119 88.3967 107.323 88.3967H107.629V88.6592H105.995V88.3967H106.251C106.455 88.3967 106.505 88.2673 106.505 87.7424V85.8401C106.505 85.3188 106.352 84.8592 105.893 84.8592C105.229 84.8592 105.127 85.7106 105.127 86.4315V87.9395C105.127 88.2661 105.177 88.3967 105.381 88.3967H105.637V88.6592H103.951L103.952 88.3967ZM107.781 88.3967H108.088C108.24 88.3967 108.293 88.3314 108.293 87.873V85.3841C108.293 84.9898 108.293 84.8604 108.088 84.8604H107.781V84.598H108.189C108.497 84.598 108.855 84.5303 108.955 84.4661V87.873C108.955 88.3326 109.006 88.3967 109.16 88.3967H109.467V88.6592H107.781V88.3967ZM108.598 82.698C108.855 82.698 109.059 82.958 109.059 83.2193C109.059 83.297 109.048 83.3741 109.025 83.446C109.001 83.5179 108.967 83.5832 108.925 83.6382C108.882 83.6931 108.831 83.7367 108.775 83.7663C108.719 83.7959 108.659 83.811 108.598 83.8107C108.394 83.8107 108.19 83.5482 108.19 83.2193C108.19 82.958 108.394 82.698 108.598 82.698ZM109.62 88.3967H109.927C110.131 88.3967 110.181 88.2673 110.181 87.9395V83.4817C110.181 82.8927 110.131 82.7633 109.927 82.7633H109.62V82.5662H110.795V85.187C111.049 84.7274 111.357 84.4661 111.816 84.4661C112.429 84.4661 112.787 84.8604 112.787 85.6465V87.7436C112.787 88.2673 112.787 88.3979 112.992 88.3979H113.299V88.6604H111.663V88.3979H111.919C112.124 88.3979 112.174 88.2685 112.174 87.7436V85.8413C112.174 85.32 112.02 84.8604 111.561 84.8604C110.898 84.8604 110.795 85.7759 110.795 86.4326V87.9407C110.795 88.2673 110.846 88.3979 111.049 88.3979H111.306V88.6604H109.62V88.3967ZM116.92 88.791C115.952 88.791 115.491 87.8077 115.491 86.6298C115.491 85.4494 115.952 84.4661 116.92 84.4661C117.891 84.4661 118.403 85.4494 118.403 86.6298C118.403 87.8066 117.891 88.791 116.92 88.791ZM116.92 84.7274C116.361 84.7274 116.207 85.2511 116.207 86.6298C116.207 88.0049 116.361 88.5297 116.92 88.5297C117.482 88.5297 117.686 88.0061 117.686 86.6298C117.686 85.2511 117.483 84.7274 116.92 84.7274ZM120.904 88.791C120.445 88.791 120.138 88.5285 119.933 88.0049H119.882V88.6592H118.76V88.3967H119.065C119.27 88.3967 119.32 88.2673 119.32 87.9395V83.4817C119.32 82.8927 119.269 82.7633 119.065 82.7633H118.76V82.5662H119.933V85.187C120.138 84.6633 120.546 84.4661 120.904 84.4661C121.823 84.4661 122.129 85.6465 122.129 86.6298C122.129 87.7424 121.721 88.791 120.904 88.791ZM120.75 88.3967C121.312 88.3967 121.415 87.6106 121.415 86.6298C121.415 85.6465 121.262 84.8604 120.75 84.8604C120.24 84.8604 119.933 85.32 119.933 86.6298C119.933 87.8066 120.24 88.3967 120.75 88.3967ZM122.487 88.3967H122.792C122.997 88.3967 122.997 88.2673 122.997 87.9395V85.7106C122.997 84.9898 122.997 84.8592 122.792 84.8592H122.487V84.5968H122.792C123.253 84.5968 123.507 84.5291 123.609 84.465V85.1858H123.662C123.916 84.7262 124.224 84.465 124.683 84.465C125.092 84.465 125.397 84.6621 125.551 85.1858C125.806 84.6621 126.113 84.465 126.623 84.465C127.185 84.465 127.543 84.7939 127.543 85.58V87.7412C127.543 88.2649 127.543 88.3955 127.747 88.3955H128.002V88.658H126.368V88.3955H126.622C126.878 88.3955 126.878 88.2661 126.878 87.7412V85.9066C126.878 85.1858 126.776 84.858 126.317 84.858C125.805 84.858 125.601 85.5123 125.601 86.2331V87.6082C125.601 88.3291 125.654 88.3944 125.806 88.3944H126.113V88.6568H124.479V88.3944H124.784C124.938 88.3944 124.938 88.2649 124.938 87.6759V85.9066C124.938 85.3829 124.938 84.858 124.426 84.858C123.763 84.858 123.662 85.7095 123.662 86.4303V87.9384C123.662 88.2649 123.713 88.3955 123.866 88.3955H124.172V88.658H122.488V88.3967H122.487ZM129.838 88.791C128.868 88.791 128.409 87.8077 128.409 86.6298C128.409 85.4494 128.868 84.4661 129.838 84.4661C130.809 84.4661 131.321 85.4494 131.321 86.6298C131.321 87.8066 130.809 88.791 129.838 88.791ZM129.838 84.7274C129.277 84.7274 129.125 85.2511 129.125 86.6298C129.125 88.0049 129.277 88.5297 129.838 88.5297C130.451 88.5297 130.604 88.0061 130.604 86.6298C130.604 85.2511 130.451 84.7274 129.838 84.7274ZM134.485 87.2829C134.485 88.2008 134.026 88.791 133.363 88.791C132.392 88.791 131.88 87.8077 131.88 86.6298C131.88 85.4494 132.392 84.4661 133.363 84.4661C133.822 84.4661 134.434 84.7286 134.434 85.32C134.435 85.3888 134.425 85.4572 134.404 85.5209C134.384 85.5847 134.354 85.6426 134.316 85.6912C134.278 85.7398 134.233 85.7781 134.183 85.8039C134.133 85.8297 134.08 85.8424 134.026 85.8413C133.772 85.8413 133.618 85.6465 133.618 85.3841C133.618 85.1217 133.719 85.1216 133.719 84.9898C133.719 84.7274 133.464 84.7274 133.363 84.7274C132.75 84.7274 132.597 85.2511 132.597 86.6298C132.597 87.5453 132.75 88.5297 133.414 88.5297C133.975 88.5297 134.231 87.9407 134.231 87.2841L134.485 87.2829ZM134.792 88.3967H135.098C135.251 88.3967 135.302 88.3314 135.302 87.873V85.3841C135.302 84.9898 135.302 84.8604 135.098 84.8604H134.792V84.598H135.2C135.506 84.598 135.864 84.5303 136.017 84.4661C135.965 84.598 135.965 84.8604 135.965 85.32V87.873C135.965 88.3326 136.017 88.3967 136.221 88.3967H136.476V88.6592H134.792V88.3967ZM135.659 82.698C135.864 82.698 136.067 82.958 136.067 83.2193C136.067 83.5482 135.863 83.8107 135.659 83.8107C135.599 83.8108 135.539 83.7956 135.483 83.7659C135.427 83.7362 135.376 83.6926 135.334 83.6377C135.291 83.5827 135.257 83.5174 135.234 83.4456C135.212 83.3738 135.2 83.2969 135.2 83.2193C135.2 82.958 135.405 82.698 135.659 82.698Z" fill="black"/>
<path id="Vector_10" fill-rule="evenodd" clip-rule="evenodd" d="M136.63 84.5968H137.038C137.343 84.5968 137.701 84.5292 137.804 84.465V89.0535C137.804 89.9049 137.548 90.5616 136.833 90.5616C136.475 90.5616 136.016 90.3645 136.016 89.8408C136.016 89.5142 136.17 89.3171 136.424 89.3171C136.576 89.3171 136.73 89.4465 136.73 89.709C136.73 89.9714 136.629 89.9714 136.629 90.1032C136.629 90.3003 136.73 90.3003 136.833 90.3003C137.088 90.3003 137.139 90.1032 137.139 89.12V85.3853C137.139 84.9911 137.139 84.8617 136.934 84.8617H136.629V84.5968H136.63ZM137.447 82.6981C137.701 82.6981 137.906 82.9581 137.906 83.2194C137.906 83.297 137.895 83.3739 137.872 83.4457C137.849 83.5175 137.815 83.5828 137.772 83.6377C137.73 83.6927 137.679 83.7363 137.623 83.766C137.567 83.7957 137.507 83.8109 137.447 83.8107C137.242 83.8107 137.039 83.5483 137.039 83.2194C137.038 82.9581 137.242 82.6981 137.447 82.6981ZM140.255 84.5968H141.736V84.8593H141.531C141.378 84.8593 141.277 84.8593 141.277 85.054C141.277 85.1217 141.328 85.3188 141.378 85.5136L142.041 87.6107H142.094L142.706 85.5813C142.757 85.3188 142.807 85.1217 142.807 85.0552C142.807 84.8605 142.756 84.8605 142.553 84.8605H142.398V84.598H143.42V84.8605H143.369C143.215 84.8605 143.164 84.9899 143.011 85.4495L142.246 87.8731C142.144 88.1356 142.093 88.4645 142.04 88.7269H141.684C141.631 88.5298 141.581 88.2032 141.479 87.8731L140.764 85.5813C140.56 84.9246 140.51 84.8605 140.356 84.8605H140.255V84.5968Z" fill="black"/>
<path id="Vector_11" fill-rule="evenodd" clip-rule="evenodd" d="M147.71 82.7621C147.761 83.0245 147.862 83.3511 147.965 83.6135L149.087 87.4146C149.394 88.3955 149.546 88.3955 149.752 88.3955H149.803V88.658H148.066V88.3955H148.22C148.475 88.3955 148.525 88.3302 148.525 88.2008C148.525 88.1331 148.525 88.0036 148.475 87.8065L148.116 86.758H146.382L146.177 87.4146C146.023 87.8065 145.973 88.0037 145.973 88.1331C145.973 88.3955 146.177 88.3955 146.381 88.3955H146.481V88.658H145.155V88.3955H145.255C145.46 88.3955 145.614 88.3302 145.767 87.8718L147.146 83.5482C147.247 83.2858 147.298 83.0245 147.35 82.7621H147.71ZM148.066 86.4967L147.299 83.9413L146.431 86.4967H148.066Z" fill="#19938D"/>
<path id="Vector_12" fill-rule="evenodd" clip-rule="evenodd" d="M149.802 88.3968H150.057C150.21 88.3968 150.311 88.3315 150.311 87.8731V83.5495C150.311 82.8928 150.26 82.7634 150.057 82.7634H149.802V82.5662H150.925V87.8731C150.925 88.3327 151.027 88.3968 151.181 88.3968H151.435V88.6592H149.801L149.802 88.3968ZM153.784 88.791C153.376 88.791 153.02 88.5939 152.815 88.0702V89.6425C152.815 90.102 152.866 90.1661 153.02 90.1661H153.325V90.4286H151.641V90.1661H151.895C152.1 90.1661 152.15 90.1008 152.15 89.6425V85.5813C152.15 84.9899 152.15 84.8605 151.895 84.8605H151.641V84.598H152.304C152.509 84.598 152.662 84.5303 152.763 84.4662V85.32C152.968 84.7963 153.325 84.4662 153.785 84.4662C154.654 84.4662 154.96 85.6466 154.96 86.6298C154.959 87.7425 154.55 88.791 153.784 88.791ZM154.245 86.6286C154.245 85.6454 154.142 84.8593 153.632 84.8593C153.12 84.8593 152.763 85.3188 152.763 86.6286C152.763 87.8066 153.07 88.3956 153.632 88.3956C154.194 88.3956 154.245 87.6095 154.245 86.6286ZM158.738 87.7425C158.738 88.3968 158.584 88.791 158.074 88.791C157.767 88.791 157.513 88.5939 157.462 88.2674C157.257 88.6592 156.95 88.791 156.593 88.791C156.033 88.791 155.571 88.3968 155.571 87.6107C155.571 86.6951 156.388 86.2356 157.054 86.2356H157.462V85.5148C157.462 85.0552 157.359 84.7287 156.95 84.7287C156.849 84.7287 156.491 84.7963 156.491 84.9911C156.491 85.0564 156.592 85.1882 156.592 85.3853C156.592 85.6478 156.388 85.8425 156.184 85.8425C156.13 85.8436 156.077 85.8309 156.027 85.8052C155.977 85.7794 155.932 85.7411 155.894 85.6925C155.856 85.6439 155.826 85.586 155.806 85.5222C155.785 85.4584 155.775 85.3901 155.776 85.3212C155.776 84.6004 156.645 84.4674 156.951 84.4674C157.614 84.4674 158.075 84.7298 158.075 85.6478V88.0714C158.075 88.2686 158.126 88.398 158.28 88.398C158.484 88.398 158.484 88.0061 158.484 87.7437V87.5466H158.739L158.738 87.7425ZM157.462 86.4968C157.308 86.4968 157.206 86.4315 157.104 86.4315C156.592 86.4315 156.236 86.9552 156.236 87.6095C156.236 88.1332 156.44 88.4633 156.848 88.4633C157.154 88.4633 157.461 88.0691 157.461 87.6772L157.462 86.4968ZM158.941 88.3968H159.247C159.451 88.3968 159.451 88.2674 159.451 87.9396V83.4818C159.451 82.8928 159.451 82.7634 159.247 82.7634H158.941V82.5662H160.116V85.187C160.371 84.7275 160.678 84.4662 161.138 84.4662C161.751 84.4662 162.109 84.8605 162.109 85.6466V87.7437C162.109 88.2674 162.109 88.398 162.313 88.398H162.618V88.6604H160.984V88.398H161.239C161.443 88.398 161.493 88.2686 161.493 87.7437V85.8413C161.493 85.32 161.342 84.8605 160.881 84.8605C160.217 84.8605 160.116 85.776 160.116 86.4327V87.9408C160.116 88.2674 160.167 88.398 160.321 88.398H160.626V88.6604H158.942L158.941 88.3968ZM68.4167 82.6981L69.0811 84.0079L69.6427 84.1385L70.3062 82.8275L69.6936 83.4165H69.1829L68.4167 82.6981ZM132.138 82.1708L132.8 83.5495L133.363 83.6136L134.026 82.3038L133.363 82.9581H132.851L132.138 82.1708ZM77.3522 88.2021C78.039 87.1202 78.6701 85.9822 79.2417 84.7952H78.4237C77.913 84.7952 77.7094 85.0552 77.7094 85.7107H77.5049V84.5303H80.0578V84.8593C79.3943 86.0373 78.7818 87.2176 78.1683 88.3968H79.0362C79.5979 88.3968 79.8024 88.1344 79.8533 87.4159H80.0578V88.5939H77.3522V88.2021Z" fill="black"/>
<path id="Vector_13" fill-rule="evenodd" clip-rule="evenodd" d="M33.4936 33.1584C33.4936 33.1584 33.4936 33.2249 33.4427 33.2249C26.8056 44.7566 12.9688 65.2004 5.15663 75.6194L0 71.1639C8.42475 62.5796 16.7468 52.5537 23.8946 41.5469C29.5412 32.9092 35.0734 24.1494 40.4888 15.2713L45.5945 36.3053C47.011 34.6307 48.3899 32.9046 49.7296 31.129L49.7805 31.3262C50.4449 34.0134 51.0574 36.6995 51.5682 39.3203C52.2316 42.466 52.8959 47.8382 53.5594 52.7532L53.5085 52.885C51.6709 54.3907 49.3225 56.8167 46.9732 59.567C44.6239 62.3849 42.3273 65.3346 40.8459 67.6941V67.4317C39.9271 60.9444 38.3439 53.5393 37.2725 48.3618C36.2509 43.3174 34.975 37.8134 33.5963 33.2261L33.4427 33.2249L33.4936 33.1584ZM55.4229 50.8746C54.5152 43.2996 53.515 35.7484 51.4136 28.9381C54.4948 24.9125 57.4456 20.9582 60.3778 16.9326L62.605 26.7947L66.6143 22.6504C67.4808 26.9313 68.1504 31.2739 68.6194 35.6557C73.206 32.2286 77.8593 29.5794 82.5958 27.867L82.6504 32.1538C75.98 33.8567 63.1518 42.0978 55.4229 50.8746Z" fill="#19938D"/>
</g>
</svg>
