<svg width="109" height="141" viewBox="0 0 109 141" fill="none" xmlns="http://www.w3.org/2000/svg">
<g id="sawgrass-mills 1">
<path id="Vector" fill-rule="evenodd" clip-rule="evenodd" d="M100.971 108.239C100.97 107.967 101.011 107.698 101.092 107.447C101.173 107.196 101.291 106.968 101.441 106.775C101.591 106.583 101.769 106.431 101.964 106.328C102.16 106.224 102.37 106.171 102.581 106.172C103.008 106.172 103.418 106.39 103.72 106.778C104.022 107.165 104.191 107.691 104.192 108.239C104.191 108.787 104.021 109.312 103.719 109.7C103.418 110.087 103.008 110.305 102.581 110.306C102.37 110.306 102.16 110.253 101.964 110.15C101.769 110.046 101.591 109.894 101.441 109.702C101.291 109.51 101.173 109.282 101.092 109.031C101.011 108.779 100.97 108.51 100.971 108.239ZM103.767 108.239C103.767 107.316 103.269 106.662 102.581 106.662C101.879 106.662 101.395 107.316 101.395 108.239C101.395 109.161 101.879 109.814 102.581 109.814C103.269 109.814 103.767 109.161 103.767 108.239ZM103.379 109.362H102.958L102.572 108.419H102.283V109.362H101.918V107.131H102.759C103.215 107.131 103.435 107.29 103.435 107.813C103.435 108.228 103.265 108.391 102.958 108.419L103.379 109.362ZM102.763 108.085C102.959 108.091 103.095 108.033 103.095 107.753C103.095 107.453 102.845 107.474 102.678 107.474H102.284V108.085H102.763Z" fill="#48AA6A"/>
<path id="Vector_2" d="M60.3753 36.5983L59.3756 36.8168L59.7974 40.0012L59.8285 40.2313L59.6476 40.2705L58.8338 40.4476L58.654 40.4867L58.624 40.2552L58.2022 37.0737L57.2024 37.2914L57.0226 37.3306L56.9926 37.0998L56.8908 36.3385L56.8586 36.107L57.0396 36.0678L60.2125 35.3755L60.3912 35.3363L60.4223 35.5671L60.5252 36.3284L60.5563 36.5591L60.3753 36.5983ZM59.1347 36.3944L60.1344 36.1767L60.0937 35.877L57.2816 36.4909L57.3212 36.7906L58.3209 36.5729L58.5008 36.5345L58.5319 36.766L58.9526 39.9475L59.4067 39.8488L58.9848 36.6651L58.9537 36.435L59.1347 36.3944ZM66.2055 38.8328L65.2006 39.0534L65.0208 39.0934L64.9897 38.8619L64.7414 36.988L63.0834 37.3502L63.3311 39.224L63.3611 39.4548L63.1813 39.494L62.1764 39.7131L61.9966 39.7523L61.9666 39.5208L61.2773 34.329L61.2473 34.0989L61.426 34.0597L62.432 33.8391L62.613 33.7999L62.6429 34.0314L62.8883 35.8842L64.5475 35.5221L64.302 33.6693L64.2709 33.4393L64.4508 33.3993L65.4556 33.1794L65.6355 33.1403L65.6666 33.3725L66.3547 38.5636L66.3858 38.7944L66.2055 38.8328ZM65.3188 38.552L65.9651 38.4105L65.338 33.6809L64.6928 33.8224L64.9382 35.6752L64.9682 35.906L64.7884 35.9452L62.7685 36.3857L62.5898 36.4249L62.5587 36.1934L62.3132 34.3406L61.6669 34.4821L62.294 39.2116L62.9392 39.0709L62.6916 37.197L62.6605 36.967L62.8414 36.9271L64.859 36.4866L65.0377 36.4474L65.0688 36.6782L65.3188 38.552ZM69.9167 38.1071L67.7628 38.5766L67.5841 38.6158L67.553 38.3843L67.0571 34.6374L67.026 34.4074L67.2058 34.3675L69.3297 33.9037L69.5084 33.8645L69.5395 34.0968L69.6311 34.7855L69.6611 35.0155L69.4813 35.0554L68.2678 35.3203L68.3096 35.6433L69.4604 35.3922L69.6391 35.353L69.6713 35.5838L69.7629 36.2725L69.794 36.504L69.613 36.5432L68.4623 36.7943L68.52 37.2275L69.7657 36.9561L69.9456 36.9169L69.9767 37.1484L70.0671 37.8379L70.0982 38.0679L69.9167 38.1071ZM67.8821 38.0752L69.677 37.684L69.6459 37.4569L68.4001 37.7283L68.2203 37.7675L68.1892 37.536L68.071 36.6411L68.0399 36.4111L68.2208 36.3719L69.3716 36.1208L69.3405 35.8944L68.1886 36.1455L68.0099 36.1854L67.9788 35.9532L67.8759 35.1679L67.8459 34.9379L68.0257 34.898L69.2393 34.6331L69.2093 34.4066L67.4456 34.7913L67.8821 38.0752Z" fill="white"/>
<path id="Vector_3" fill-rule="evenodd" clip-rule="evenodd" d="M60.8973 36.4263L59.9908 36.6245L60.3375 39.2509L59.7137 39.3873L59.3654 36.7602L58.4589 36.9576L58.3803 36.369L60.8204 35.8363L60.8973 36.4263ZM65.5495 38.1071L64.7742 38.2762L64.5599 36.6615L63.0082 37.0004L63.2226 38.6158L62.4473 38.7849L61.9169 34.792L62.6933 34.6229L62.9053 36.2282L64.457 35.89L64.245 34.2833L65.0214 34.1142L65.5495 38.1071ZM68.5726 37.5323L66.9169 37.8938L66.5346 35.0134L68.1671 34.657L68.2378 35.1854L67.164 35.4198L67.2437 36.0243L68.2678 35.8008L68.3373 36.3291L67.3133 36.5519L67.4049 37.2428L68.5019 37.004L68.5726 37.5323Z" fill="black"/>
<path id="Vector_4" fill-rule="evenodd" clip-rule="evenodd" d="M67.2194 41.8332C67.6192 41.7759 68.0201 41.8274 68.4176 41.7577C68.4556 41.7527 68.4906 41.7288 68.5149 41.691C68.5392 41.6532 68.551 41.6047 68.5477 41.5558C68.5459 41.5318 68.5404 41.5085 68.5315 41.4873C68.5226 41.466 68.5105 41.4472 68.496 41.4319C68.4814 41.4167 68.4647 41.4053 68.4466 41.3984C68.4286 41.3915 68.4098 41.3892 68.3911 41.3917C67.9935 41.4614 67.5926 41.4092 67.1985 41.4673C67.1176 41.4789 67.0582 41.5682 67.065 41.664C67.0663 41.6883 67.0713 41.7119 67.0798 41.7336C67.0883 41.7553 67.1001 41.7746 67.1145 41.7903C67.1289 41.8061 67.1455 41.818 67.1636 41.8254C67.1816 41.8327 67.2006 41.8354 67.2194 41.8332Z" fill="#F4CF53"/>
<path id="Vector_5" fill-rule="evenodd" clip-rule="evenodd" d="M75.7604 39.6913C75.5614 39.3074 75.3465 39.1434 75.0767 39.1746C74.7629 39.2124 74.5243 39.5324 74.5508 39.8938C74.5763 40.256 74.7363 40.4258 75.3657 40.6718C76.5385 41.145 76.849 41.4875 76.914 42.3983C76.9937 43.4985 76.3553 44.4405 75.4652 44.5457C74.6809 44.6393 74.0979 44.1959 73.7202 43.2031L74.397 42.743C74.7182 43.4484 74.9603 43.6531 75.4075 43.5994C75.8351 43.5493 76.1319 43.1051 76.0923 42.5696C76.0601 42.1065 75.8746 41.9099 75.2684 41.6617C74.1493 41.182 73.857 40.8677 73.7993 40.0716C73.7286 39.1006 74.2568 38.319 75.0637 38.2232C75.6026 38.1586 76.0579 38.4707 76.3937 39.163L75.7604 39.6913Z" fill="black"/>
<path id="Vector_6" fill-rule="evenodd" clip-rule="evenodd" d="M79.1409 36.9844C79.3689 36.9397 79.5877 36.8374 79.7847 36.6834C79.9817 36.5294 80.153 36.3267 80.2885 36.0872C80.4241 35.8477 80.5213 35.576 80.5745 35.288C80.6276 34.9999 80.6358 34.7012 80.5984 34.4091C80.561 34.1169 80.4788 33.8372 80.3566 33.5862C80.2344 33.3351 80.0745 33.1176 79.8864 32.9464C79.6982 32.7751 79.4855 32.6534 79.2604 32.5884C79.0354 32.5234 78.8026 32.5164 78.5754 32.5677C78.1232 32.6697 77.7206 32.9965 77.455 33.4771C77.1894 33.9578 77.0822 34.5534 77.1566 35.1348C77.2311 35.7162 77.4812 36.2365 77.8526 36.5828C78.2241 36.9291 78.687 37.0734 79.1409 36.9844ZM89.5593 41.6856C89.725 42.9781 87.2199 43.6211 85.062 44.0674C82.2205 44.6662 80.9691 44.3991 80.7248 43.3867L83.1942 42.8584C83.3565 43.2205 83.6738 43.4571 84.9636 43.185C86.0703 42.952 86.953 42.7655 86.8863 42.2488C86.8529 41.9948 86.733 41.7248 85.5314 41.8939L83.1303 42.2401C81.5402 42.473 80.5913 42.3366 80.5059 41.6718C80.3544 40.4831 82.4076 39.6224 84.4377 39.195C87.9115 38.4641 88.4736 39.1514 88.7608 39.933L86.3253 40.4468C86.1274 40.0332 85.2792 39.925 84.5638 40.068C83.9197 40.2037 82.5988 40.785 82.6531 41.2117C82.6796 41.4171 83.257 41.3293 84.3308 41.1696L86.0539 40.9164C88.5799 40.5448 89.4609 40.9156 89.5593 41.6776V41.6856Z" fill="#F6D563"/>
<path id="Vector_7" fill-rule="evenodd" clip-rule="evenodd" d="M79.0549 35.9778C79.2878 35.9282 79.4958 35.7621 79.6335 35.5161C79.7711 35.27 79.8272 34.964 79.7895 34.665C79.7507 34.3661 79.6211 34.0992 79.4291 33.9228C79.237 33.7465 78.9984 33.6751 78.7654 33.7244C78.2819 33.8268 77.9534 34.4132 78.0331 35.0351C78.1128 35.657 78.5709 36.0787 79.0549 35.9778Z" fill="#CC1E4C"/>
<path id="Vector_8" fill-rule="evenodd" clip-rule="evenodd" d="M78.2197 38.1238L79.8432 37.9307L80.2718 43.8461L78.6495 44.0406L78.2197 38.1238ZM87.5976 42.338C87.6825 43.5108 86.1342 43.7989 84.7979 43.9513C83.0376 44.1625 82.2663 43.7786 82.1306 42.8482L83.6625 42.6581C83.7575 42.997 83.9509 43.2416 84.7482 43.1472C85.4341 43.0652 85.9809 42.9992 85.9476 42.5347C85.93 42.3046 85.8594 42.0528 85.1157 42.0666L83.6314 42.1029C82.6463 42.1312 82.061 41.9026 82.0175 41.3039C81.94 40.232 83.2191 39.6979 84.4773 39.5476C86.6267 39.2907 86.9632 39.9671 87.1289 40.6928L85.6247 40.8728C85.5099 40.4838 84.9874 40.2929 84.5446 40.3379C84.1448 40.3858 83.3232 40.7523 83.3509 41.137C83.365 41.3213 83.7218 41.309 84.3857 41.2894L85.4528 41.2589C87.0101 41.2139 87.5468 41.6435 87.5976 42.3301V42.338Z" fill="black"/>
<g id="Group 76">
<path id="Vector_9" fill-rule="evenodd" clip-rule="evenodd" d="M66.7664 74.6973C66.4753 74.5862 66.1732 74.53 65.8696 74.5304C65.2836 74.5305 64.7096 74.7424 64.2132 75.142C63.7169 75.5415 63.3182 76.1124 63.0631 76.7893C62.8079 77.4662 62.7065 78.2217 62.7705 78.9692C62.8345 79.7166 63.0614 80.4258 63.425 81.0154L66.7664 74.6973ZM64.9738 82.3645C65.5996 82.6058 66.2686 82.5886 66.8863 82.3156C67.5041 82.0425 68.0394 81.5273 68.4166 80.8427C68.7939 80.1581 68.9941 79.3387 68.9889 78.5003C68.9837 77.6618 68.7734 76.8466 68.3877 76.1698L64.9738 82.3645ZM19.0149 35.9902C18.7276 36.9496 19.8201 36.6549 19.4175 37.7617C19.0149 37.7617 19.0726 38.3524 19.0726 38.7218C18.5546 39.5332 17.7499 39.7545 16.9441 39.5332C16.4267 39.3118 15.9664 38.5738 15.8516 37.9097C15.6214 36.8763 16.0817 35.7696 16.8293 35.2521C17.5769 34.8835 18.4975 35.1048 19.0149 35.9902Z" fill="white"/>
<path id="Vector_10" fill-rule="evenodd" clip-rule="evenodd" d="M40.8702 73.044H31.8406L35.1 66.1802H26.1468L29.2529 59.3896H20.1657L23.3097 52.599H14.4713L17.5577 45.7837H8.35557C9.56344 42.3881 12.5735 39.4605 12.4005 35.4001C12.8608 32.8906 14.8739 30.8237 16.8293 30.455C19.2445 30.0124 21.0851 31.5618 22.3507 33.998C22.8687 35.3268 23.0411 36.8029 22.9258 38.4271L58.9877 71.864C61.3457 68.247 65.1989 66.6228 68.7643 68.321C72.0435 69.7971 74.125 73.6166 74.2856 77.8425C74.4016 80.8688 73.7111 82.4189 72.9636 84.5598L100.091 109.779H4.80887V94.4499L13.0332 85.8146L13.7237 93.1959L20.6254 85.7413L21.0851 93.3439L28.3895 85.668L28.7921 93.2706L35.9239 85.668L36.3837 93.1966L43.6303 85.3726L43.9181 92.8272L50.7243 85.4219L51.2994 92.9259L54.6736 89.2842L40.8702 73.044Z" fill="#48AA6A"/>
<path id="Vector_11" fill-rule="evenodd" clip-rule="evenodd" d="M66.7664 74.6973C66.4754 74.5862 66.1733 74.53 65.8696 74.5304C65.2838 74.5304 64.7098 74.7422 64.2135 75.1417C63.7172 75.5411 63.3186 76.1118 63.0634 76.7886C62.8083 77.4654 62.7069 78.2207 62.7708 78.968C62.8348 79.7153 63.0615 80.4244 63.425 81.014L66.7664 74.6973ZM64.9739 82.3645C65.5996 82.6058 66.2686 82.5886 66.8863 82.3156C67.5041 82.0425 68.0394 81.5273 68.4166 80.8427C68.7939 80.1581 68.9941 79.3387 68.9889 78.5003C68.9837 77.6618 68.7734 76.8466 68.3877 76.1698L64.9739 82.3645ZM8.91878 103.615L9.00021 103.729C9.28408 104.121 9.65391 104.442 10.1103 104.442C10.3059 104.442 10.6373 104.328 10.7001 103.976C10.7628 103.625 10.5084 103.594 10.337 103.543L9.95701 103.438C9.21736 103.242 8.68241 102.593 8.90125 101.373C9.23263 99.5235 10.5983 98.4915 11.7863 98.4915C12.4089 98.4915 12.9411 98.7078 13.394 99.173L12.5005 101.166C12.2189 100.836 11.8825 100.577 11.455 100.577C11.2814 100.577 11.0111 100.669 10.9534 100.989C10.9014 101.278 11.1394 101.32 11.2831 101.371L11.706 101.516C12.4972 101.784 12.9914 102.424 12.7544 103.747C12.4202 105.607 11.0682 106.525 9.88745 106.525C9.20039 106.525 8.4517 106.256 7.91562 105.813L8.91878 103.615ZM14.3582 106.404H12.2585L15.5536 98.6178H17.7471L18.2973 106.404H16.1977L16.1903 105.434H14.6924L14.3582 106.404ZM16.175 103.584L16.1909 102.21C16.1914 101.881 16.2163 101.539 16.2401 101.21H16.1671L15.3794 103.584H16.175ZM20.7916 98.6171L20.6446 103.265H20.6882C20.8097 102.789 20.9421 102.294 21.1128 101.828L22.2681 98.6171H23.7881L23.6999 103.265H23.7435C23.8537 102.809 23.9753 102.334 24.1268 101.89L25.2652 98.6163H27.3286L24.0047 106.403H22.2743L22.4112 102.168H22.3461C22.2523 102.572 22.1675 102.964 22.034 103.346L20.9347 106.403H19.249L18.735 98.6163H20.7916V98.6171ZM32.427 101.818C32.1838 103.088 31.9933 104.152 31.1705 105.144C30.4297 106.043 29.452 106.527 28.6049 106.527C26.9401 106.527 25.8561 105.061 26.3057 102.562C26.7614 100.021 28.3459 98.493 30.0627 98.493C31.011 98.493 32.1934 99.1643 32.3812 100.496L30.3539 101.468C30.2725 101.075 30.0271 100.868 29.7082 100.868C28.999 100.868 28.4522 101.736 28.2831 102.676C28.1299 103.534 28.3617 104.339 29.0064 104.339C29.3174 104.339 29.7523 104.132 29.9321 103.658H29.0347L29.3643 101.819L32.427 101.818ZM33.5433 98.6171H35.9398C37.1714 98.6171 38.0795 99.3595 37.7278 101.323C37.5163 102.5 37.1092 102.996 36.3073 103.347L36.296 103.409C36.3763 103.523 36.4775 103.647 36.5454 103.873L37.2783 106.404H34.9903L34.5702 103.905H34.534L34.0855 106.404H32.1448L33.5433 98.6171ZM34.8653 102.066H35.0022C35.3279 102.066 35.6666 101.995 35.7707 101.415C35.8781 100.818 35.5943 100.744 35.2538 100.744H35.1012L34.8653 102.066ZM39.5826 106.404H37.4824L40.7775 98.6178H42.971L43.5206 106.404H41.421L41.4148 105.434H39.9157L39.5826 106.404ZM41.3989 103.584L41.4131 102.21C41.4148 101.881 41.4396 101.539 41.4628 101.21H41.3904L40.6022 103.584H41.3989ZM44.7347 103.615L44.8161 103.729C45.1 104.121 45.4698 104.442 45.9262 104.442C46.1213 104.442 46.4526 104.328 46.516 103.976C46.5787 103.625 46.3243 103.594 46.1524 103.543L45.7724 103.438C45.0327 103.242 44.4978 102.593 44.7172 101.373C45.0485 99.5235 46.4142 98.4915 47.6023 98.4915C48.2237 98.4915 48.757 98.7078 49.2099 99.173L48.3165 101.166C48.0349 100.836 47.6978 100.577 47.2709 100.577C47.0973 100.577 46.827 100.669 46.7699 100.989C46.7178 101.278 46.9559 101.32 47.0995 101.371L47.522 101.516C48.3136 101.784 48.8079 102.424 48.5698 103.747C48.2362 105.607 46.8847 106.525 45.7039 106.525C45.0169 106.525 44.2676 106.256 43.7321 105.813L44.7347 103.615ZM49.4712 103.615L49.5515 103.729C49.8359 104.121 50.2063 104.442 50.6626 104.442C50.8566 104.442 51.1897 104.328 51.2524 103.976C51.3152 103.625 51.0607 103.594 50.8888 103.543L50.5083 103.438C49.7697 103.242 49.2348 102.593 49.4531 101.373C49.7856 99.5235 51.1507 98.4915 52.3382 98.4915C52.9608 98.4915 53.494 98.7078 53.9464 99.173L53.0529 101.166C52.7713 100.836 52.4343 100.577 52.0068 100.577C51.8326 100.577 51.5635 100.669 51.5046 100.989C51.4538 101.278 51.6918 101.32 51.8355 101.371L52.2584 101.516C53.0495 101.784 53.5426 102.424 53.3057 103.747C52.9726 105.607 51.6206 106.525 50.4398 106.525C49.7528 106.525 49.0035 106.256 48.468 105.813L49.4712 103.615ZM58.4205 98.6171H60.4613L60.48 102.707H60.5309C60.6281 102.366 60.7299 102.004 60.8532 101.674L62.0187 98.6171H64.0374L63.5381 106.403H61.6194L62.1165 102.138H62.0803C61.9983 102.396 61.9135 102.664 61.8106 102.913L60.3957 106.403H59.237L59.1189 103.109C59.12 102.778 59.1256 102.468 59.1698 102.138H59.1047C59.0352 102.448 58.9622 102.767 58.8859 103.078L58.0563 106.403H56.1376L58.4205 98.6171ZM65.4766 98.6171H67.4603L66.063 106.404H64.0781L65.4766 98.6171ZM68.2367 98.6171H70.2204L69.2715 103.905H70.9369L70.4873 106.404H66.8382L68.2367 98.6171ZM72.6457 98.6171H74.6295L73.6806 103.905H75.3459L74.8964 106.404H71.2484L72.6457 98.6171ZM76.3101 103.615L76.3909 103.729C76.6759 104.121 77.0446 104.442 77.5021 104.442C77.6978 104.442 78.0291 104.328 78.0919 103.976C78.1547 103.625 77.8996 103.594 77.7283 103.543L77.3483 103.438C76.6081 103.242 76.0737 102.593 76.2925 101.373C76.6239 99.5235 77.9901 98.4915 79.1776 98.4915C79.8008 98.4915 80.3329 98.7078 80.7859 99.173L79.8924 101.166C79.6108 100.836 79.2738 100.577 78.8463 100.577C78.6715 100.577 78.4035 100.669 78.3458 100.989C78.2926 101.278 78.5313 101.32 78.6749 101.371L79.0979 101.516C79.8884 101.784 80.3821 102.424 80.1463 103.747C79.8115 105.607 78.4589 106.525 77.2793 106.525C76.5911 106.525 75.8435 106.256 75.3069 105.813L76.3101 103.615ZM19.0149 35.9902C18.7276 36.9496 19.8201 36.6549 19.4175 37.7617C19.0149 37.7617 19.0726 38.3524 19.0726 38.7218C18.5546 39.5332 17.7499 39.7545 16.9441 39.5332C16.4267 39.3118 15.9664 38.5738 15.8516 37.9097C15.6214 36.8763 16.0817 35.7696 16.8293 35.2521C17.5769 34.8835 18.4975 35.1048 19.0149 35.9902Z" fill="white"/>
<path id="Vector_12" fill-rule="evenodd" clip-rule="evenodd" d="M59.8195 46.2396C59.0742 46.1808 58.4081 46.6811 57.6967 46.883C57.66 46.8944 57.6282 46.9238 57.6082 46.9649C57.5883 47.0061 57.5816 47.0556 57.5898 47.103C57.6085 47.2039 57.6882 47.2627 57.7623 47.2402C58.4516 47.0493 59.0985 46.5707 59.8144 46.5998C59.8919 46.607 59.9569 46.5228 59.958 46.424C59.9586 46.4002 59.9555 46.3764 59.9488 46.3541C59.9421 46.3318 59.9321 46.3114 59.9191 46.2942C59.9062 46.277 59.8907 46.2633 59.8736 46.2539C59.8565 46.2446 59.8381 46.2397 59.8195 46.2396Z" fill="#DEA239"/>
<path id="Vector_13" fill-rule="evenodd" clip-rule="evenodd" d="M54.0623 33.1011L58.5392 55.7915L82.4942 48.7237L85.1876 45.7149L90.4703 44.0298L90.7564 34.2383L71.7596 34.3196L70.7406 30.0407L54.0623 33.1011Z" fill="#BAC98D"/>
<path id="Vector_14" fill-rule="evenodd" clip-rule="evenodd" d="M69.0074 49.5532C64.5497 50.3173 61.5482 49.9574 62.3042 48.7498C63.0586 47.5429 67.2855 45.9449 71.7438 45.1807C76.2026 44.4172 79.2031 44.7765 78.447 45.9848C77.6921 47.1924 73.4651 48.7897 69.0074 49.5532ZM79.5882 45.7888C80.5201 44.2997 77.1515 43.7982 72.0644 44.6698C66.9762 45.5421 62.0956 47.4558 61.1636 48.945C60.2317 50.4356 63.6003 50.9357 68.6874 50.0641C73.7756 49.1925 78.6551 47.2795 79.5882 45.7888Z" fill="white"/>
<path id="Vector_15" fill-rule="evenodd" clip-rule="evenodd" d="M68.2876 50.7028C62.1832 51.7486 58.1677 51.1034 59.3207 49.2615C60.4749 47.4182 66.3593 45.0763 72.4648 44.0312C78.5692 42.9847 82.5841 43.6306 81.4305 45.4732C80.2775 47.3158 74.3931 49.6577 68.2876 50.7028ZM82.9228 45.2185C84.2082 43.1633 79.6328 42.4615 72.7046 43.648C65.774 44.8353 59.1155 47.4617 57.8307 49.517C56.5442 51.5707 61.1184 52.2732 68.0489 51.086C74.9761 49.8987 81.6358 47.2716 82.9228 45.2185Z" fill="white"/>
<path id="Vector_16" fill-rule="evenodd" clip-rule="evenodd" d="M72.9924 45.72C75.3714 45.4797 76.8235 45.7613 76.3841 46.4638C75.8486 47.3194 72.7238 48.4733 69.405 49.0416C66.085 49.6113 63.8287 49.379 64.3631 48.5241C64.6577 48.0546 65.7361 47.4929 67.1996 46.9892C67.3376 46.9421 67.4789 46.8956 67.6226 46.8485L67.5276 47.2128C67.3805 47.257 67.2403 47.302 67.1034 47.3463C65.947 47.7222 65.1288 48.1141 64.9343 48.4262C64.5531 49.0343 66.6805 49.1091 69.6854 48.5938C72.6893 48.0793 75.433 47.1699 75.813 46.5625C76.0991 46.1053 74.9659 45.9493 73.106 46.1198L72.9924 45.72Z" fill="white"/>
<path id="Vector_17" fill-rule="evenodd" clip-rule="evenodd" d="M72.9878 45.7497L71.6403 46.229L71.2761 45.4513L72.2979 44.4332L72.9878 45.7497Z" fill="black"/>
<path id="Vector_18" d="M70.9668 39.0535L75.1571 47.0916L75.5026 47.757L74.8884 47.8913L73.0308 48.297L72.7713 48.3536L72.6265 48.0691L71.4492 45.757L69.3852 46.2062L68.8265 48.9059L68.7592 49.2295L68.503 49.2854L66.8739 49.6403L66.2609 49.7738L66.4164 49.0017L68.2915 39.6391L68.3566 39.3125L68.6173 39.2559L70.5653 38.8307L70.8204 38.7748L70.9668 39.0535ZM69.7985 43.2808L70.472 43.1335L70.0095 42.3243L69.7985 43.2808Z" fill="#F6D563"/>
<path id="Vector_19" fill-rule="evenodd" clip-rule="evenodd" d="M73.9299 47.5887L70.2956 40.6043L68.8112 40.9273L67.121 49.0757L68.3628 48.805L69.7476 42.1458L71.0652 45.0588L72.5162 47.8978L73.9299 47.5887Z" fill="black"/>
<path id="Vector_20" fill-rule="evenodd" clip-rule="evenodd" d="M73.2011 46.2824L71.8094 46.6423L71.5148 45.844L72.5032 45.0486L73.2011 46.2824ZM58.4013 54.1753L82.7017 48.5815L82.6197 50.2455L58.5562 57.0456L58.1819 54.2232L58.4013 54.1753Z" fill="black"/>
<path id="Vector_21" d="M59.3603 42.3976C59.4899 42.0041 59.6576 41.6332 59.8596 41.2937C60.208 40.7139 60.6433 40.2295 61.1399 39.8692C61.0278 39.642 60.9271 39.4059 60.8385 39.1623L60.8131 39.0897C60.7855 39.0119 60.769 38.9283 60.7644 38.843C60.7613 38.7503 60.7727 38.6578 60.7978 38.5708H60.7967C60.8391 38.42 60.9211 38.2928 61.0285 38.2109L61.119 38.1543C61.1755 38.126 61.236 38.1107 61.2903 38.1078C61.3427 38.1056 61.3951 38.1132 61.4458 38.1303L61.5329 38.1695C61.6474 38.2354 61.7407 38.35 61.797 38.4939L61.8072 38.5237C61.9022 38.7944 62.0294 39.052 62.1674 39.3045C62.3984 39.2136 62.6338 39.1418 62.872 39.0897H62.8788L62.8867 39.0883H62.8878L62.8935 39.0868V39.0846C63.6133 38.9286 64.2992 38.9591 64.9201 39.1507C65.0174 38.8952 65.1311 38.6601 65.2447 38.4264L65.2436 38.4257C65.3399 38.236 65.4292 38.0406 65.5111 37.84L65.5145 37.8313L65.5235 37.8132C65.5891 37.6583 65.6986 37.5418 65.8294 37.4881L65.834 37.4866C65.9645 37.4339 66.1057 37.4466 66.2292 37.5222L66.2281 37.5236L66.2422 37.5323L66.2468 37.5345L66.2581 37.5425C66.3842 37.6296 66.4735 37.7718 66.5154 37.9337C66.5601 38.102 66.5526 38.286 66.4944 38.4475L66.4899 38.4634L66.4877 38.4678L66.4865 38.4671C66.3913 38.7178 66.2836 38.9604 66.1642 39.1935C66.089 39.3459 66.0127 39.5005 65.9476 39.6558C66.0505 39.7276 66.1506 39.8038 66.2468 39.8858C67.1589 40.6645 67.7951 41.9048 68.0071 43.4854H68.006L68.0071 43.4992H68.0082C68.0071 43.4876 68.0071 43.492 68.0082 43.4992C68.2503 45.323 67.803 46.9892 66.8682 48.1729L66.9564 48.2375C67.0483 48.3278 67.1149 48.4538 67.1464 48.5967L67.1555 48.6468C67.1774 48.7835 67.167 48.9255 67.1255 49.0546C67.1032 49.124 67.0731 49.1888 67.0362 49.2469L67.0616 49.2731L67.1255 49.3384C67.1842 49.3958 67.2331 49.4679 67.2694 49.5504C67.3057 49.6329 67.3285 49.7239 67.3364 49.8181V49.8195C67.3511 50.0023 67.3095 50.1851 67.2205 50.329C67.1407 50.4591 67.0275 50.5486 66.901 50.5816C66.7746 50.6145 66.6431 50.5888 66.5301 50.509L66.3271 50.3145C66.1128 50.0995 65.9046 49.8749 65.7028 49.641C65.6264 49.5517 65.5501 49.4596 65.4766 49.3667C65.1039 49.5729 64.714 49.7236 64.3145 49.8159C64.3031 50.125 64.2674 50.4318 64.2082 50.7318C64.1245 51.1396 63.9764 51.5228 63.7134 51.829C63.7123 51.8305 63.7123 51.832 63.71 51.8334C63.71 51.8349 63.7089 51.8363 63.7066 51.837L63.7055 51.8378C63.6077 51.9572 63.4786 52.0253 63.3436 52.0286H63.3391C63.2541 52.0292 63.1702 52.0048 63.0936 51.9575L63.088 51.9539C63.0369 51.9211 62.9904 51.878 62.95 51.8261L62.9477 51.824C62.8814 51.7392 62.8331 51.6333 62.8075 51.5177C62.7952 51.4619 62.7882 51.4044 62.7866 51.3464V51.3428C62.7837 51.1635 62.8342 50.9896 62.928 50.8566L62.9721 50.8036C63.1332 50.6338 63.1819 50.284 63.205 49.9327C62.7888 49.9224 62.3755 49.8416 61.9757 49.6925C61.8863 49.8152 61.8009 49.9487 61.7173 50.0808C61.6183 50.2401 61.5151 50.395 61.4079 50.5452C61.3498 50.6395 61.2738 50.7129 61.1871 50.7584C61.1004 50.8039 61.0061 50.82 60.9131 50.8051C60.8381 50.7939 60.7658 50.7615 60.7011 50.7114L60.6932 50.7071L60.6655 50.6824L60.6575 50.6766C60.5727 50.5975 60.6344 50.6548 60.6298 50.6498L60.6157 50.6338C60.521 50.5228 60.4584 50.3739 60.4381 50.2114H60.4393C60.4188 50.0387 60.4495 49.8624 60.5252 49.7172L60.5371 49.6947L60.5416 49.6867L60.5705 49.6417C60.6643 49.514 60.7571 49.3645 60.8487 49.2165L60.9307 49.0887C60.3928 48.6523 59.9455 48.0549 59.6272 47.3477C59.3083 47.384 58.9843 47.5262 58.6597 47.6678C58.4233 47.7715 58.1858 47.8753 57.9297 47.9515C57.9116 47.957 57.8935 47.9621 57.8754 47.9668L57.8624 47.9689C57.8556 47.9704 57.8799 47.9689 57.8505 47.974L57.846 47.9747C57.7143 48.0005 57.5798 47.9644 57.4671 47.8731C57.3545 47.7818 57.2714 47.6413 57.233 47.4776L57.2262 47.4363C57.2004 47.2881 57.2126 47.1332 57.2611 46.9947C57.3095 46.8562 57.3915 46.7415 57.4948 46.6677L57.6384 46.5973C57.8561 46.5356 58.0936 46.4311 58.33 46.3281C58.615 46.2025 58.9 46.0763 59.198 46.0015C59.1625 45.8297 59.1327 45.6561 59.1087 45.4812L59.1076 45.4717C59.1076 45.4746 59.1087 45.4783 59.1098 45.4812L59.1076 45.4688C59.1053 45.4536 59.1064 45.4594 59.1076 45.4688V45.4637L59.1053 45.4572C59.0307 44.897 59.0206 44.3259 59.0753 43.7619C59.0012 43.738 58.9226 43.7184 58.8457 43.6981C58.6801 43.6538 58.2062 43.5594 58.0371 43.484L57.9777 43.4571C57.856 43.4045 57.7548 43.2938 57.695 43.148C57.6346 43.0076 57.6125 42.8454 57.6322 42.6871C57.6461 42.5854 57.677 42.4887 57.7228 42.4038C57.7686 42.3188 57.8281 42.2476 57.8974 42.1951V42.1936C58.0132 42.1087 58.1493 42.0816 58.2797 42.1174L58.3668 42.1515C58.494 42.2212 58.9566 42.3061 59.1098 42.3388C59.1935 42.3555 59.2761 42.3751 59.3603 42.3976ZM63.3617 43.1472L63.3526 43.1501H63.3504L63.3458 43.1516L63.3447 43.1523C63.2226 43.1782 63.106 43.2362 63.0023 43.3228C62.8985 43.4093 62.8099 43.5225 62.7419 43.6552C62.6028 43.9267 62.544 44.2815 62.5926 44.6676V44.6698C62.5935 44.6733 62.5939 44.677 62.5938 44.6807H62.5949L62.596 44.6887C62.5949 44.6821 62.5949 44.685 62.596 44.6887C62.6492 45.0806 62.7939 45.3875 62.9947 45.5762C63.1915 45.7606 63.451 45.8389 63.736 45.7794L63.7451 45.7773H63.7519L63.753 45.7758C64.0312 45.7134 64.2478 45.5349 64.3801 45.2838C64.5158 45.0269 64.5712 44.6821 64.5215 44.2975L64.5203 44.2917C64.5203 44.2932 64.5203 44.2924 64.5192 44.2917C64.5181 44.2808 64.5181 44.2757 64.517 44.2728C64.4593 43.8613 64.3162 43.5449 64.1149 43.3526H64.1138C63.917 43.1654 63.6563 43.0877 63.3628 43.1487C63.369 43.1465 63.3713 43.1451 63.3617 43.1472Z" fill="#F4CF53"/>
<path id="Vector_22" fill-rule="evenodd" clip-rule="evenodd" d="M65.6236 44.1306C65.7904 45.3912 64.8794 46.6815 63.8887 46.8971C62.9325 47.1075 61.7359 46.2425 61.5725 45.016C61.3927 43.6545 62.2098 42.3279 63.2621 42.0986C64.3315 41.8656 65.4432 42.7699 65.6258 44.1415L65.6236 44.1306ZM67.2216 43.7699C66.9112 41.4266 64.9444 39.883 63.015 40.3032C61.1619 40.6965 59.7369 42.9811 60.0508 45.3353C60.3403 47.5916 62.3636 49.0213 64.1194 48.6381C65.9284 48.2542 67.531 46.1024 67.2228 43.7815L67.2216 43.7699Z" fill="black"/>
<path id="Vector_23" fill-rule="evenodd" clip-rule="evenodd" d="M67.2295 41.6929C67.7909 41.4321 68.3635 41.2136 68.9447 41.0383C68.9733 41.0292 69.0002 41.013 69.0239 40.9905C69.0476 40.968 69.0677 40.9398 69.0829 40.9073C69.098 40.8749 69.1081 40.8389 69.1124 40.8015C69.1167 40.7641 69.1153 40.7259 69.1081 40.6892C69.0935 40.6163 69.0572 40.5536 69.007 40.5146C68.9567 40.4756 68.8966 40.4636 68.8395 40.4809C68.2455 40.6615 67.6602 40.8861 67.0865 41.1537C67.0585 41.1651 67.0326 41.1837 67.0103 41.2083C66.988 41.2329 66.9699 41.263 66.9569 41.2968C66.9439 41.3306 66.9364 41.3674 66.9347 41.4051C66.9331 41.4427 66.9374 41.4804 66.9474 41.5158C66.9565 41.5515 66.9712 41.5845 66.9904 41.6128C67.0096 41.6411 67.0331 41.6642 67.0594 41.6807C67.0857 41.6972 67.1143 41.7068 67.1435 41.7089C67.1727 41.711 67.202 41.7055 67.2295 41.6929ZM61.6211 48.3761C61.2632 48.7157 61.0392 49.207 60.7406 49.6142C60.7179 49.6538 60.7082 49.7033 60.7136 49.752C60.719 49.8007 60.7391 49.8447 60.7695 49.8747C60.8002 49.902 60.8379 49.9134 60.8748 49.9064C60.9118 49.8994 60.9453 49.8745 60.9685 49.837C61.2535 49.4567 61.4735 49.0016 61.7947 48.6642C61.81 48.6502 61.823 48.6323 61.8327 48.6116C61.8424 48.5909 61.8487 48.5678 61.8512 48.5439C61.8537 48.5199 61.8523 48.4956 61.8472 48.4723C61.842 48.4491 61.8332 48.4274 61.8213 48.4087C61.8102 48.389 61.7961 48.3724 61.7799 48.36C61.7636 48.3476 61.7455 48.3396 61.7267 48.3366C61.7079 48.3335 61.6889 48.3354 61.6707 48.3422C61.6525 48.349 61.6357 48.3605 61.6211 48.3761ZM67.3042 49.6091L67.2024 49.5067C66.9055 49.2085 66.7189 48.8645 66.4837 48.4878C66.6624 48.5938 66.8835 48.7121 67.0537 48.8384C67.0857 48.8629 67.1241 48.8702 67.1603 48.8587C67.1965 48.8471 67.2277 48.8176 67.2471 48.7767C67.2867 48.686 67.2669 48.5756 67.1962 48.5248C66.9711 48.3485 66.7291 48.228 66.4927 48.0858C66.3932 48.0256 66.2896 47.9768 66.1834 47.9399C66.1596 47.933 66.1348 47.9345 66.1116 47.9443C66.0903 47.9519 66.0707 47.9658 66.0543 47.985C66.038 48.0041 66.0255 48.028 66.0177 48.0546V48.0735C65.9969 48.068 65.9754 48.0685 65.9547 48.075C65.9341 48.0816 65.9149 48.0939 65.8984 48.1112C65.8841 48.1267 65.8723 48.1458 65.8637 48.1672C65.8551 48.1886 65.8499 48.212 65.8484 48.236C65.8469 48.26 65.849 48.2842 65.8548 48.3071C65.8606 48.33 65.8698 48.3512 65.882 48.3695C66.2518 48.9262 66.6098 49.3551 67.0503 49.8152L67.1244 49.8921C67.1753 49.9705 67.2759 49.9422 67.3251 49.8631C67.3371 49.8448 67.3461 49.8237 67.3515 49.8009C67.357 49.7781 67.3588 49.7541 67.3568 49.7304C67.3549 49.7066 67.3492 49.6837 67.3401 49.6628C67.3311 49.642 67.3189 49.6237 67.3042 49.6091ZM65.7418 39.6798C65.9086 39.1318 66.2111 38.6826 66.4023 38.1521C66.4105 38.131 66.4154 38.1079 66.4168 38.0843C66.4181 38.0607 66.4157 38.037 66.4099 38.0146C66.4041 37.9921 66.3949 37.9714 66.3828 37.9535C66.3707 37.9356 66.356 37.921 66.3395 37.9104C66.3232 37.8993 66.3054 37.8924 66.287 37.8902C66.2687 37.888 66.2502 37.8905 66.2326 37.8976C66.215 37.9047 66.1987 37.9162 66.1846 37.9315C66.1705 37.9468 66.159 37.9655 66.1506 37.9866C65.9487 38.507 65.6513 38.9671 65.4845 39.5143C65.4681 39.558 65.4657 39.6082 65.4776 39.6542C65.4895 39.7002 65.5149 39.7385 65.5484 39.761C65.6168 39.8053 65.7027 39.7683 65.7418 39.6798ZM62.1453 39.7269C61.8727 39.2175 61.5623 38.7392 61.3621 38.1666C61.3546 38.1448 61.3438 38.1252 61.3303 38.1089C61.3167 38.0926 61.3007 38.0801 61.2833 38.0719C61.2659 38.0638 61.2473 38.0603 61.2288 38.0616C61.2103 38.0629 61.1921 38.069 61.1755 38.0795C61.1584 38.0893 61.143 38.1033 61.1303 38.1209C61.1176 38.1385 61.1078 38.1592 61.1015 38.1818C61.0952 38.2044 61.0925 38.2285 61.0937 38.2524C61.0948 38.2764 61.0998 38.2998 61.1082 38.3212C61.3112 38.9032 61.6007 39.417 61.8988 39.9207C61.9191 39.9619 61.9511 39.9914 61.9881 40.0028C62.025 40.0142 62.064 40.0066 62.0967 39.9817C62.1292 39.9558 62.1524 39.9147 62.1615 39.867C62.1706 39.8194 62.1648 39.7691 62.1453 39.7269ZM59.6928 42.7365C59.241 42.5253 58.7694 42.3722 58.3475 42.0558C58.3315 42.0436 58.3137 42.0358 58.2952 42.0329C58.2767 42.0299 58.2579 42.0318 58.24 42.0384C58.2221 42.0451 58.2055 42.0564 58.1911 42.0716C58.1767 42.0868 58.1649 42.1056 58.1564 42.1269C58.1471 42.1475 58.141 42.1703 58.1387 42.194C58.1364 42.2177 58.1378 42.2417 58.1429 42.2647C58.1479 42.2876 58.1566 42.309 58.1682 42.3276C58.1799 42.3462 58.1943 42.3616 58.2107 42.3729C58.6416 42.6929 59.1098 42.8903 59.5814 43.0769C59.6167 43.095 59.656 43.0949 59.6912 43.0767C59.7264 43.0584 59.7547 43.0234 59.7703 42.9789C59.784 42.9334 59.7837 42.8829 59.7693 42.8378C59.7548 42.7927 59.7275 42.7564 59.6928 42.7365Z" fill="#DEA239"/>
<path id="Vector_24" fill-rule="evenodd" clip-rule="evenodd" d="M78.2451 42.6647C78.5397 44.9674 77.0757 45.4848 75.7977 45.7381C74.1177 46.0922 73.2972 45.3157 72.9958 43.4862L74.4558 43.1639C74.6091 43.8323 74.8426 44.3229 75.6043 44.1611C76.2592 44.0239 76.7817 43.9136 76.6635 42.997C76.6069 42.5456 76.491 42.0471 75.7689 42.0492L74.3241 42.0688C73.369 42.0913 72.7577 41.6225 72.6067 40.4439C72.337 38.3372 73.4894 37.3357 74.6922 37.0824C76.7455 36.6499 77.1973 37.9845 77.4896 39.4163L76.0494 39.7197C75.8661 38.9511 75.3227 38.5571 74.8975 38.6311C74.5163 38.7116 73.7795 39.404 73.8756 40.1609C73.9231 40.5252 74.2698 40.5122 74.915 40.4947L75.9498 40.4715C77.4665 40.4367 78.0693 41.2952 78.2429 42.6487L78.2451 42.6647Z" fill="#F6D563"/>
<path id="Vector_25" fill-rule="evenodd" clip-rule="evenodd" d="M80.6739 44.7852C79.9506 45.0116 78.8581 45.442 78.3531 44.873C77.8617 42.7764 77.6395 40.4527 77.4455 38.2617C77.4003 37.9032 77.704 37.5752 78.0947 37.4511C78.7936 37.229 79.7832 36.8625 80.2198 37.4772C80.6648 39.5956 80.8814 41.8656 81.1478 44.0537C81.1347 44.3295 80.9368 44.6234 80.6739 44.7852Z" fill="#F6D563"/>
<path id="Vector_26" d="M67.3805 46.6286C67.4371 46.281 67.6469 46.1409 67.8601 45.9878C68.4798 45.5371 69.3224 44.9442 70.2945 44.4115C71.3593 43.8273 72.5796 43.3127 73.8366 43.1291C73.9871 43.1081 74.116 43.1437 74.2223 43.2162H74.2246C74.2364 43.2249 74.25 43.2351 74.2619 43.2453C74.4242 43.3795 74.5203 43.6197 74.5356 43.8628C74.539 43.9231 74.5378 43.9833 74.5322 44.0421V44.0436C74.5159 44.2338 74.4529 44.4124 74.3524 44.5537C74.0024 45.0223 73.6226 45.4524 73.2169 45.8397H73.2248C73.2729 45.8269 73.3221 45.8205 73.3712 45.8223H73.3769C73.4746 45.8314 73.5687 45.8737 73.6496 45.9447C73.7304 46.0157 73.7952 46.1129 73.8372 46.2265L73.8383 46.2258C73.8426 46.2382 73.8466 46.2508 73.8502 46.2635H73.8491C73.8655 46.3143 73.8779 46.3637 73.8836 46.4101H73.8824C73.8899 46.4581 73.8933 46.507 73.8926 46.556V46.5596C73.8862 46.7394 73.8275 46.9095 73.7281 47.0364C73.5748 47.2295 73.4001 47.2404 73.201 47.2774C72.6714 47.3718 72.1454 47.4982 71.625 47.6562C71.1172 47.8106 70.62 48.0179 70.1384 48.276C70.0886 48.3035 70.0366 48.3275 69.988 48.3434C69.8002 48.4073 69.6464 48.3812 69.5243 48.3072C69.1839 48.1011 69.0702 47.5909 69.3275 47.1692C69.4247 47.011 69.595 46.8448 69.8907 46.6779L69.8952 46.6765H69.8941C70.2243 46.4887 70.549 46.2852 70.8673 46.0661C71.3366 45.7425 71.8173 45.3665 72.2855 44.9413C72.1441 44.9928 72.005 45.0458 71.8693 45.1017C70.6707 45.6036 69.5261 46.297 68.4623 47.1656C68.2836 47.3137 68.1298 47.4994 67.9013 47.4842C67.8177 47.4784 67.7362 47.4488 67.6626 47.3974C67.589 47.3461 67.5253 47.2743 67.4761 47.1874C67.431 47.1077 67.3993 47.0169 67.3829 46.9208C67.3664 46.8246 67.3656 46.7251 67.3805 46.6286Z" fill="#CC1E4C"/>
<path id="Vector_27" fill-rule="evenodd" clip-rule="evenodd" d="M73.2146 46.151C73.2146 46.151 71.8529 46.4008 71.75 46.4712L71.4803 45.8699L72.5801 44.9935L73.2146 46.151Z" fill="black"/>
<path id="Vector_28" fill-rule="evenodd" clip-rule="evenodd" d="M59.5136 46.4428C58.7682 46.384 58.1021 46.8843 57.3907 47.0862C57.3541 47.098 57.3226 47.1277 57.3026 47.1689C57.2827 47.21 57.276 47.2595 57.2839 47.3069C57.2929 47.3542 57.316 47.395 57.3483 47.4206C57.3806 47.4462 57.4194 47.4543 57.4563 47.4434C58.1457 47.2524 58.7937 46.7732 59.5073 46.8037C59.5259 46.805 59.5446 46.8014 59.562 46.7931C59.5795 46.7849 59.5955 46.7721 59.6091 46.7557C59.6226 46.7393 59.6334 46.7195 59.6408 46.6975C59.6482 46.6755 59.652 46.6519 59.6521 46.628C59.6529 46.604 59.6498 46.5801 59.6432 46.5576C59.6366 46.5352 59.6265 46.5147 59.6136 46.4974C59.6006 46.4801 59.5851 46.4664 59.5679 46.457C59.5507 46.4476 59.5322 46.4428 59.5136 46.4428Z" fill="#DEA239"/>
<path id="Vector_29" fill-rule="evenodd" clip-rule="evenodd" d="M62.1707 56.195C61.8682 56.2799 61.4684 56.3423 61.3791 55.8474L61.7579 55.7407C61.7879 55.912 61.9711 55.9214 62.1159 55.8801C62.2748 55.8358 62.4184 55.7313 62.3986 55.6094C62.38 55.5049 62.2482 55.494 62.1114 55.5092L61.7913 55.5433C61.5702 55.568 61.3497 55.531 61.2942 55.2037C61.2326 54.8503 61.491 54.6064 61.8784 54.4997C62.1334 54.4279 62.5247 54.4642 62.6107 54.8343L62.2375 54.9388C62.1866 54.7777 62.0627 54.7407 61.9282 54.7791C61.7523 54.8285 61.6234 54.9511 61.6499 55.1021C61.6629 55.1863 61.7704 55.2044 61.8597 55.1972L62.3212 55.1667C62.5553 55.1507 62.7266 55.2487 62.7775 55.5404C62.8205 55.7981 62.6582 56.0579 62.1707 56.195ZM63.8881 54.8234L63.5194 54.9279L63.6235 54.4373L63.8881 54.8234ZM64.6119 55.5208L63.766 54.1064L63.3973 54.2109L63.0925 55.9497L63.4007 55.8634L63.5002 55.2799L63.9893 55.142L64.2602 55.621L64.6119 55.5208ZM66.4243 55.0027L66.1263 55.0868L65.6411 54.0019L65.5738 55.2429L65.2956 55.3213L64.6131 53.7327L64.9213 53.6448L65.3736 54.8619L65.4896 53.4852L65.649 53.4395L66.2089 54.626L66.2462 53.2718L66.5414 53.1891L66.4243 55.0027ZM68.201 54.5164L68.1711 54.351C68.0902 54.4925 68.0195 54.6021 67.7679 54.6732C67.4224 54.7704 67.0226 54.486 66.9519 54.0629C66.8722 53.5955 67.0667 53.1289 67.458 53.0214C67.8923 52.8988 68.1349 53.2159 68.2101 53.4583L67.9505 53.5316C67.9307 53.4097 67.7504 53.2421 67.51 53.311C67.2595 53.3814 67.1623 53.6833 67.2143 53.9896C67.2527 54.2145 67.475 54.4018 67.7125 54.3365C67.89 54.2878 67.9698 54.1899 68.0303 53.9961L67.7221 54.0825L67.6814 53.8459L68.2491 53.6862L68.3814 54.4656L68.201 54.5164ZM69.4083 52.9917C69.4172 53.0405 69.4118 53.0918 69.393 53.1357C69.3742 53.1797 69.3434 53.2131 69.3066 53.2297L68.844 53.3589L68.7756 52.9605L69.2404 52.8291C69.2793 52.8259 69.3177 52.8409 69.3486 52.8713C69.3795 52.9017 69.4007 52.9456 69.4083 52.9946V52.9917ZM69.8958 54.0382C69.8483 54.0512 69.833 53.9598 69.833 53.9598L69.7635 53.5519C69.7471 53.4547 69.6617 53.3408 69.5384 53.3393C69.6611 53.2479 69.682 53.0585 69.6475 52.8763C69.6034 52.6404 69.4344 52.4619 69.2608 52.5113L68.4945 52.7282L68.7727 54.3553L69.0035 54.2907L68.8955 53.6557L69.3603 53.5244C69.5039 53.5469 69.5537 53.6833 69.5825 53.8466L69.6278 54.1137L69.8958 54.0382ZM70.9346 52.8371L70.5648 52.9416L70.6711 52.4496L70.9346 52.8371ZM71.6595 53.5345L70.8124 52.1201L70.4437 52.2246L70.1389 53.9634L70.4483 53.8756L70.5467 53.2914L71.0347 53.155L71.3061 53.6332L71.6595 53.5345ZM72.6621 53.2979C72.3596 53.3829 71.9609 53.4445 71.8716 52.9489L72.2505 52.8422C72.2793 53.0142 72.4625 53.0229 72.6073 52.9815C72.7662 52.9365 72.9098 52.8342 72.8889 52.7108C72.8714 52.6063 72.7407 52.5962 72.6028 52.6129L72.2838 52.647C72.0616 52.6716 71.8411 52.6339 71.7856 52.3059C71.724 51.9517 71.9836 51.7086 72.3709 51.6012C72.6248 51.5301 73.015 51.5664 73.1021 51.9365L72.7289 52.0424C72.678 51.8821 72.5553 51.8443 72.4195 51.8821C72.2448 51.9314 72.1147 52.0541 72.1413 52.205C72.1555 52.2906 72.2618 52.3073 72.3522 52.3001L72.8137 52.271C73.0478 52.2536 73.2191 52.3531 73.2689 52.6448C73.3124 52.8995 73.149 53.1608 72.6621 53.2979ZM74.2913 52.8386C73.9899 52.9235 73.589 52.9852 73.5019 52.4895L73.8785 52.3835C73.9085 52.5555 74.0928 52.5635 74.2387 52.5221C74.3965 52.4779 74.5401 52.3748 74.518 52.2515C74.5005 52.1469 74.371 52.1368 74.233 52.152L73.913 52.1869C73.6919 52.2115 73.4702 52.1731 73.4148 51.8465C73.3543 51.4923 73.6127 51.2485 74.0001 51.1425C74.2551 51.0707 74.6453 51.107 74.7312 51.4778L74.3591 51.5831C74.3071 51.4227 74.1844 51.3849 74.0498 51.4227C73.874 51.472 73.745 51.5947 73.7705 51.7471C73.7846 51.8313 73.892 51.8479 73.9814 51.8407L74.444 51.8117C74.6769 51.7943 74.8494 51.8937 74.898 52.1854C74.9416 52.4394 74.7793 52.7014 74.2913 52.8386ZM77.5869 51.8625L77.4082 50.8196L77.1673 51.9808L76.9417 52.0439L76.3762 51.1113L76.5555 52.1542L76.2614 52.2362L76.0188 50.8174L76.4107 50.7071L76.9937 51.6353L77.2708 50.4647L77.6423 50.3602L77.8849 51.7783L77.5869 51.8625ZM78.1224 51.718L77.8798 50.2993L78.1315 50.2281L78.3746 51.6469L78.1224 51.718ZM78.732 51.5519L78.4928 50.1563L78.7365 50.0888L78.9254 51.1992L79.6357 50.9989L79.6843 51.2833L78.732 51.5519ZM79.9043 51.2217L79.6667 49.8261L79.9088 49.7586L80.0982 50.8675L80.8085 50.6687L80.856 50.9539L79.9043 51.2217ZM81.6878 50.747C81.4226 50.8218 81.0725 50.8755 80.9939 50.4422L81.3253 50.3486C81.3519 50.4988 81.5131 50.5068 81.6403 50.4705C81.7771 50.4321 81.9032 50.3414 81.8857 50.2339C81.8704 50.1425 81.7562 50.1338 81.6363 50.1469L81.3558 50.1766C81.1624 50.1984 80.9691 50.1657 80.9204 49.8791C80.8661 49.5692 81.0929 49.3558 81.4316 49.2622C81.655 49.2005 81.996 49.2317 82.0734 49.5561L81.7466 49.6476C81.7014 49.5068 81.5939 49.4741 81.4757 49.5068C81.3214 49.551 81.2083 49.6577 81.2303 49.7905C81.2433 49.8653 81.3366 49.8791 81.4147 49.874L81.8201 49.8479C82.0242 49.8326 82.1747 49.919 82.2176 50.1744C82.2567 50.3994 82.1142 50.6273 81.6878 50.747ZM59.5831 56.4773C59.6006 56.5731 59.4417 56.6479 59.3179 56.6834C59.2285 56.7081 59.1369 56.6929 59.1222 56.6051C59.107 56.5216 59.1929 56.4839 59.2755 56.4454L59.44 56.404C59.4864 56.3815 59.5152 56.3815 59.556 56.3387L59.5831 56.4773ZM59.8647 56.6856C59.8346 56.6293 59.814 56.5655 59.8042 56.4984L59.7233 56.0267C59.6922 55.8489 59.5656 55.7088 59.2167 55.8075C59.0323 55.859 58.8746 56.0397 58.8876 56.2669L59.094 56.2081C59.1081 56.0651 59.1449 56.0252 59.2483 55.9962C59.3988 55.9548 59.5022 56.0071 59.5147 56.084C59.5288 56.158 59.5113 56.1762 59.4321 56.2103L59.1646 56.2865C59.0142 56.3496 58.8864 56.4947 58.9153 56.6638C58.9526 56.8888 59.1573 56.9324 59.3524 56.8772C59.4604 56.8489 59.5758 56.8235 59.6397 56.6936C59.6476 56.7263 59.634 56.7052 59.6476 56.7357L59.8647 56.6856ZM60.2956 55.7465L60.3827 56.2487C60.3968 56.3322 60.4302 56.4106 60.4997 56.3917L60.5806 56.3678L60.6213 56.6094L60.5427 56.6319C60.3618 56.6834 60.1475 56.5122 60.1152 56.3264L60.0293 55.822L59.8602 55.8692L59.8336 55.7124L60.0027 55.666L59.9461 55.343L60.2147 55.2683L60.269 55.5912L60.4845 55.5303L60.5122 55.6856L60.2956 55.7465Z" fill="white"/>
<path id="Vector_30" fill-rule="evenodd" clip-rule="evenodd" d="M82.9415 49.171C82.9415 49.068 82.9652 48.9674 83.0098 48.8817C83.0544 48.7961 83.1177 48.7294 83.1918 48.69C83.2659 48.6506 83.3474 48.6403 83.426 48.6604C83.5047 48.6805 83.5769 48.73 83.6336 48.8029C83.6903 48.8757 83.7289 48.9684 83.7446 49.0694C83.7602 49.1704 83.7522 49.2751 83.7215 49.3702C83.6908 49.4654 83.6389 49.5467 83.5722 49.6039C83.5055 49.6611 83.4271 49.6916 83.3469 49.6916C83.2936 49.6919 83.2408 49.6787 83.1915 49.6526C83.1422 49.6265 83.0974 49.5882 83.0597 49.5398C83.022 49.4914 82.9922 49.4339 82.9719 49.3706C82.9516 49.3073 82.9412 49.2395 82.9415 49.171ZM83.6438 49.171C83.6438 48.9394 83.5188 48.7745 83.3469 48.7745C83.1705 48.7745 83.0478 48.9394 83.0478 49.171C83.0478 49.4034 83.1705 49.5675 83.3469 49.5675C83.5188 49.5675 83.6438 49.4034 83.6438 49.171ZM83.5465 49.4542H83.4414L83.343 49.2175H83.2712V49.4542H83.1784V48.8943H83.3905C83.5041 48.8943 83.5595 48.9343 83.5595 49.0657C83.5595 49.1703 83.5177 49.2109 83.4414 49.2175L83.5465 49.4542ZM83.3922 49.134C83.4419 49.1347 83.4747 49.1194 83.4747 49.0497C83.4747 48.9742 83.412 48.9793 83.3695 48.9793H83.2712V49.134H83.3922Z" fill="black"/>
<path id="Vector_31" fill-rule="evenodd" clip-rule="evenodd" d="M63.9368 49.5379C63.9057 50.0902 63.8972 50.7564 63.537 51.1374C63.5241 51.1544 63.514 51.1745 63.5072 51.1966C63.5004 51.2187 63.4972 51.2423 63.4976 51.266C63.498 51.2897 63.5021 51.3131 63.5097 51.3347C63.5172 51.3564 63.528 51.3759 63.5415 51.3921C63.5546 51.4095 63.5703 51.4232 63.5877 51.4324C63.605 51.4417 63.6237 51.4463 63.6425 51.4459C63.6613 51.4456 63.6798 51.4403 63.697 51.4304C63.7141 51.4206 63.7295 51.4063 63.7422 51.3885C64.1454 50.9255 64.1997 50.1933 64.224 49.5386C64.2237 49.4902 64.2087 49.4438 64.182 49.4095C64.1554 49.3752 64.1193 49.3556 64.0815 49.355C64.0435 49.3548 64.0069 49.374 63.9798 49.4082C63.9527 49.4425 63.9372 49.4891 63.9368 49.5379Z" fill="#DEA239"/>
</g>
</g>
</svg>
