<svg width="61" height="74" viewBox="0 0 61 74" fill="none" xmlns="http://www.w3.org/2000/svg">
<path id="Vector" d="M33.1336 5.59799C33.1101 5.43581 33.0941 5.27201 33.0856 5.10742C32.9605 2.79714 34.3157 0.793795 36.1156 0.631035C37.9175 0.469906 39.478 2.21134 39.6038 4.52162C39.7296 6.8319 38.374 8.83525 36.5741 8.998C36.4602 9.0091 36.3474 9.01105 36.237 9.00551C36.1641 9.02964 36.1204 9.04106 36.0576 9.11217C35.8723 9.4827 36.5288 9.41355 36.0825 11.033C36.0825 11.033 36.0795 11.2108 36.0299 11.3885C35.9948 12.0102 35.8085 13.8524 35.7819 14.8336C35.8767 14.9758 35.9033 15.0449 35.8929 15.3897C35.8507 15.8558 35.7674 16.998 35.6334 17.73C35.5198 18.3572 35.3203 18.4769 35.1594 18.6305C34.9332 19.93 34.8735 21.0064 34.2933 22.5847C34.2407 23.7811 34.1751 24.107 33.9797 24.6911C33.9578 26.4528 34.0526 26.715 33.1265 29.5045C32.8873 30.8091 33.1148 31.7117 33.3672 33.0672C33.6254 34.4603 34.3416 35.0425 34.4481 36.4692C34.6989 39.8291 34.6361 42.1166 34.0745 44.751L34.5647 46.241C35.1732 46.5991 36.6828 47.5783 35.8457 49.1283C37.0247 49.9235 38.8055 50.7679 40.2745 52.3805C40.8654 53.012 41.4896 53.7006 42.0498 54.5088C43.1162 54.7221 43.0023 54.8307 43.7928 55.4541C46.117 57.2829 49.8441 60.9109 52.0047 63.4795C52.3768 63.7584 52.5285 63.9593 52.8289 64.1616C52.8759 64.277 52.8886 64.3038 52.8782 64.3351C52.775 64.6704 52.7789 64.6802 52.6856 64.9473C52.8022 65.1127 53.0195 65.2673 53.1494 65.4121C53.2709 65.4607 53.2709 65.386 53.4793 65.3204C53.7505 65.6463 54.0865 65.9089 54.2069 65.8935C54.5747 65.7738 54.5119 65.8714 54.8228 65.4251C54.9346 65.2774 55.1219 65.4271 55.1219 65.4271C55.2385 65.2513 55.4894 64.901 55.8239 64.6479C56.0907 64.446 56.6 64.4235 56.6 64.4235C56.7706 64.4254 56.7386 64.6498 56.7238 64.7229C56.5312 64.8504 56.123 64.9907 55.8937 65.2076C55.3946 65.87 55.0037 66.7638 55.0037 66.7638C56.0086 66.5876 56.626 66.9076 57.4634 66.7843C57.9201 66.7504 58.2571 66.7882 58.7367 66.3427C58.7367 66.3427 59.1977 65.9216 59.6107 65.6982C60.0118 65.4737 60.3925 65.5935 60.7455 65.9226C60.9949 66.2836 61.1451 66.2856 60.7659 66.7954C60.6289 66.9934 60.4304 67.2145 60.1783 67.5348C59.7348 68.0972 59.1378 68.8467 58.5197 69.4671C57.8937 70.0943 57.1833 70.6576 56.7398 70.9159C55.621 71.9476 55.8851 71.6779 55.0055 72.7004C54.8944 72.828 54.5999 73.0559 54.457 73.1776C54.1101 73.4699 54.0018 73.2262 53.7756 72.691C53.7756 72.691 53.6722 72.491 53.5014 72.0637C53.3149 71.5976 53.1748 71.0647 53.2315 71.0735C53.0231 71.0396 52.0848 69.6279 52.0825 69.3252C51.884 69.2668 51.0376 68.2152 51.0074 68.0143L50.2577 67.2429C49.3999 67.4716 49.2032 66.7879 46.9377 64.7249C46.6792 64.719 46.2799 64.5399 45.7076 63.9952C44.6853 62.9443 42.2328 60.5668 41.817 60.2951C41.3704 60.0032 40.837 59.7282 40.5096 59.3815C40.0194 59.2657 39.7512 59.1998 39.506 59.1121C39.2554 59.024 39.0274 58.9102 38.393 58.8012C37.3604 58.6365 36.2894 58.0879 35.2697 57.433C34.7871 57.1394 34.3667 56.9897 33.9512 56.7604C33.019 56.2551 32.2197 55.8001 31.6003 55.6165C31.3639 55.5865 30.2406 55.154 29.6514 54.7127C29.4471 54.5776 29.3289 54.4485 29.1947 54.409C28.8854 54.3177 28.6869 54.4746 28.5471 54.5349C27.7915 55.0402 27.084 55.4766 26.4303 55.928C25.8219 56.3455 25.2617 56.7793 24.668 57.218C24.1325 57.615 23.5139 57.9891 22.878 58.3789C22.878 58.3789 21.0646 59.5452 20.0742 59.9986C19.2149 60.8989 17.4584 62.4563 16.3864 63.2277C15.8555 63.5516 14.8242 64.3902 14.3484 64.5778C14.0769 64.8583 13.1099 65.7438 12.3528 66.4741C11.7677 67.0358 11.3257 67.5094 11.3257 67.5094C10.9859 67.9005 11.0091 68.0861 10.363 67.7338C10.1836 67.923 10.0451 68.0407 9.92967 68.1493C9.46305 68.5838 9.4234 68.4791 9.25286 68.4677C8.92755 68.8291 8.88663 68.6422 8.60223 69.0581C8.41543 69.4292 8.60655 69.3405 8.21261 69.5206C8.12951 69.5617 8.09011 69.6905 8.02607 69.7619C7.70939 70.0966 7.70812 71.0425 6.94947 71.11C6.5103 71.5122 6.62263 71.9978 6.28715 71.9766C6.30774 72.3938 5.69345 73.0028 5.58264 73.0008C4.61533 73.4291 4.54824 72.5165 3.38701 73.1975C3.23681 73.2859 3.01646 73.5295 2.72621 73.6C2.21562 73.7236 1.59854 73.5941 1.22214 73.22C0.629705 72.6339 0.0842923 71.503 0.0842923 71.503C-0.104035 70.9319 0.0055048 70.5708 0.593361 70.031C0.838364 69.8311 0.883603 69.6814 1.29508 69.6452C1.49942 69.546 1.44376 69.6977 1.80872 69.5297C2.02018 69.4322 2.02018 69.5016 2.44614 69.455C2.54373 69.3705 2.68097 69.3405 2.86473 69.2639C3.20173 69.1213 3.5301 68.9625 3.5301 68.9625C3.5301 68.9625 3.616 68.8519 3.94005 68.8914C4.21428 68.7472 4.49588 68.5332 4.64024 68.4677C4.60364 67.9103 4.6504 67.9364 4.85169 67.7119C5.10254 67.4344 5.14778 67.4797 5.33458 67.6516C5.41337 67.5932 5.45124 67.5733 5.4426 67.4885C5.41185 67.1982 5.21793 67.0616 5.27638 66.4216C5.19023 66.1652 5.0634 65.8488 5.09111 65.6577C5.13203 65.4516 5.17142 65.3521 5.26901 65.2865C5.37271 65.2157 5.40626 65.3113 5.46166 65.3912C5.56078 65.5393 5.64109 65.9777 5.64109 65.9777C5.67617 66.4722 5.79562 67.1124 6.17634 66.751C6.40101 66.4588 6.44473 65.6802 6.90271 65.8469L7.22955 66.2115C7.50683 65.8769 7.52005 65.8769 7.68626 65.7422C7.68626 65.7422 7.42652 65.4053 7.65424 65.143C7.81029 64.9649 7.99836 64.8374 8.33257 64.3622C9.25007 63.0611 9.72127 62.486 10.7135 61.4374C12.6931 59.3479 14.9454 57.8824 16.3765 57.1537C16.8431 56.3934 17.2971 55.8882 18.3327 55.7607C19.5639 53.0926 21.9214 50.7099 22.4627 50.3299C22.9032 49.3054 23.0943 49.4143 23.6705 49.2085C24.1269 48.7388 24.2306 48.7388 24.4349 48.2483C24.6334 47.2358 23.977 44.5302 25.6528 44.3936C26.0089 43.7481 25.92 43.903 26.3167 43.2927C26.0483 42.4427 25.9375 41.7317 25.8646 41.1191C25.8513 41.048 25.1994 40.4583 25.3845 39.6885C25.1074 39.2655 24.5895 38.2782 24.4276 37.8157C24.3534 37.8176 24.2919 37.7817 24.2103 37.7674C24.1256 37.7501 24.0204 37.7563 23.9025 37.7432C23.6415 38.6076 23.3571 38.6718 22.893 38.8627C22.0645 41.1289 21.7727 42.0882 19.4284 43.9617C18.4977 45.299 18.2001 46.789 18.2044 46.7668C18.044 47.2084 18.1007 47.8265 18.1853 48.1579C18.0628 48.6485 18.0948 48.6971 18.0948 48.6971C18.1459 48.8823 18.2789 49.1276 18.442 49.1798C18.7236 49.2754 19.0052 49.2601 18.989 49.6626C18.9511 50.1662 18.4362 50.0836 18.1924 50.0275C17.2544 49.8364 17.5507 49.052 16.9509 49.3139C16.4914 49.6997 16.3193 50.8381 15.5693 50.6903C15.4702 50.6062 15.5007 50.3573 15.5678 50.1776C15.673 49.8967 15.8596 49.6645 15.7488 49.5592C15.2597 49.7601 14.7715 49.9643 14.2841 50.1717C13.8246 50.3325 13.3211 50.0386 13.7735 49.6508C13.9837 49.5461 14.2841 49.4147 14.6546 49.11C14.6546 49.11 14.8455 48.7767 14.4795 48.9433C14.0797 49.1266 13.4904 49.2408 13.0674 49.1811C13.0674 49.1811 12.1906 49.0334 12.0783 48.945C11.9644 48.8566 11.861 48.5089 12.1352 48.5108C12.4824 48.5147 13.3518 48.3833 14.0259 48.153C14.3512 47.9903 14.9698 47.5206 15.317 47.2994C15.317 47.2994 15.6934 46.5956 15.9005 46.4569C16.2461 45.9461 16.5379 45.6444 16.8442 45.1219C17.1433 44.3296 17.4526 43.0758 18.443 41.1341C18.901 40.2391 19.4701 39.1967 20.1863 38.2645C20.1863 38.2645 20.3715 36.7725 21.3038 35.7109C21.5096 35.0892 21.8217 34.3572 22.1295 33.6795C22.2492 33.4192 22.3628 33.1928 22.4767 32.9456C22.7657 32.3634 23.0691 31.2795 24.1953 31.1089C24.1953 31.1089 24.6766 30.6523 24.8619 30.3277C25.1509 30.0113 25.0851 29.5191 25.3199 29.1724C24.961 28.7233 24.0436 27.8788 23.9543 26.7049C23.8595 25.4599 24.2052 24.4357 24.7918 23.6777C25.4424 22.8427 26.1281 22.4252 26.961 22.4888C28.001 22.6871 28.1979 23.1291 28.5291 23.5671C28.847 23.9827 28.9652 23.7152 29.0994 24.2019C29.9719 24.4997 29.9236 24.3685 29.9163 25.1925C30.0505 25.4244 30.2751 25.64 30.2721 26.1211C30.5654 25.3402 30.6236 25.1964 31.4071 24.3369C31.5924 23.6386 31.7182 22.9517 31.8809 22.2533C32.0336 21.6075 32.2235 20.9428 32.3706 20.4427C32.2146 19.0311 32.5351 18.7972 32.9628 17.5597C32.8871 17.3894 32.9033 17.3408 32.9353 17.0616C33.1016 16.2436 33.3613 15.1614 33.5158 14.4555C33.5158 14.4555 33.5669 14.1747 33.7931 14.1541C33.9888 13.2611 34.2821 11.5986 34.3314 11.2597C34.5327 10.3255 34.4028 10.0258 34.2483 9.49966C34.1987 9.32744 34.2219 9.08216 34.1362 8.89102C33.8925 8.34631 33.6302 7.63852 33.4523 7.13295C33.3369 6.81102 33.1544 5.59766 33.1544 5.59766C32.9979 4.97826 33.1336 5.59799 33.1336 5.59799Z" fill="black"/>
</svg>
