<svg width="35" height="28" viewBox="0 0 35 28" fill="none" xmlns="http://www.w3.org/2000/svg">
<path id="Vector" d="M34.9644 15.6763C34.4774 12.2837 33.4085 9.03175 31.8179 6.1037C30.7952 4.30931 29.403 2.82251 27.7609 1.77089C26.1188 0.719269 24.2757 0.134231 22.3898 0.065979C16.2678 0.065979 9.55303 6.12951 4.8447 12.9671C0.136363 19.8047 2.08582 16.9922 0.945786 19.108C0.277115 20.2381 0.0166969 21.6153 0.218128 22.9562C0.41956 24.297 1.06751 25.4994 2.02864 26.316C2.98976 27.1325 4.19091 27.5011 5.38489 27.3458C6.57887 27.1905 7.67483 26.5232 8.4472 25.4812C10.2028 23.3525 19.3231 8.58072 25.8783 8.58072C28.4434 8.58072 30.712 10.5933 32.1599 12.9284C32.7401 13.9164 33.2255 14.9717 33.6077 16.0763C33.672 16.2565 33.7921 16.404 33.9455 16.4914C34.0989 16.5787 34.2751 16.5998 34.4413 16.5509C34.6075 16.5019 34.7522 16.3861 34.8485 16.2252C34.9447 16.0642 34.9859 15.8691 34.9644 15.6763Z" fill="#E87722"/>
</svg>
