<svg width="225" height="78" viewBox="0 0 225 78" fill="none" xmlns="http://www.w3.org/2000/svg">
<path id="Vector" fill-rule="evenodd" clip-rule="evenodd" d="M25.4762 20.5105C25.2679 20.4684 25.0208 20.5105 24.7768 20.5105C14.1042 20.5105 5.38691 32.057 5.38691 45.7577C5.38691 59.4546 14.1042 70.6383 24.7768 70.6383C26.7381 70.6383 28.628 70.2334 30.4107 69.5153C36.3631 67.0441 41.122 60.8449 43.6756 53.2096L55.4345 20.5143L25.4762 20.5105ZM225 24.7807V25.8578C224.929 27.8822 224.405 30.1243 223.318 32.416L215.866 53.2096C214.604 56.6243 216.878 56.6243 217.86 56.6243H223.318V63.362H215.443C212.19 63.362 208.063 57.4341 210.72 49.9325L218.244 29.093C220.417 22.9397 215.759 22.6685 213.625 28.5964L201.131 63.362H195.25L207.78 28.5086C209.67 23.2071 205.366 22.0383 203.583 26.9349L190.491 63.362H184.438L195.25 33.2257H195.286C198.054 25.9037 198.054 23.3407 195.11 24.8227L158.89 51.1433C161.177 54.2871 164.271 56.2648 167.604 56.7122C168.114 56.8041 168.628 56.85 169.143 56.8497C171.278 56.8406 173.385 56.2141 175.306 55.0165C177.227 53.819 178.913 52.0812 180.238 49.9325H186.256C184.64 53.9725 182.188 57.3632 179.169 59.7322C176.15 62.1013 172.681 63.3572 169.143 63.362C168.619 63.362 168.092 63.362 167.604 63.2703C165.053 63.0084 162.569 62.0947 160.297 60.5827C158.025 59.0708 156.012 56.9912 154.375 54.4663L142.089 63.362C138.205 65.3826 132.851 61.204 133.06 53.2096L133.339 52.3579C131.593 55.7386 129.222 58.5122 126.437 60.4316C123.653 62.3509 120.542 63.3563 117.381 63.3582C113.045 63.3542 108.838 61.4719 105.44 58.0161C102.041 54.5604 99.6518 49.7337 98.6577 44.3177C96.628 55.2302 88.997 63.362 79.8988 63.362C75.8783 63.3555 71.9597 61.7375 68.6905 58.7341C65.4212 55.7306 62.9646 51.4917 61.6637 46.6095L53.4048 70.6344H223.318V77.5555H44.9018L47.3869 70.6383L61.5923 31.0219C62.6283 26.9978 64.4477 23.3798 66.878 20.5105H61.3839L49.6607 53.1218H49.6964C48.2262 56.8038 46.756 60.398 45.2857 63.2245C43.6071 66.4597 38.8452 73.9613 30.4107 76.612C28.5628 77.1727 26.6749 77.4888 24.7768 77.5555C11.128 77.5555 0 63.2703 0 45.7539C0 28.2374 11.131 13.9561 24.7768 13.9561C25.0208 13.9561 25.2679 13.9561 25.4762 13.9981V13.9561H57.7827C59.157 10.3181 61.2243 7.18386 63.7933 4.84371C66.3622 2.50356 69.3497 1.03312 72.4792 0.568569H79.6875V7.08091H72.4792C68.9077 7.75697 65.9702 10.4039 63.9048 13.9561H78.4286V14.044C78.9196 13.9981 79.4107 13.9561 79.8988 13.9561C88.997 13.9561 96.628 22.1299 98.6577 33.0424C100.652 22.1299 108.283 13.9561 117.381 13.9561C127.949 13.9561 136.595 25.0481 136.595 38.6571C136.595 40.9947 136.351 43.1948 135.896 45.3032L149.753 6.72569H111.256V0.163696H223.318V6.71805H156.369L139.673 53.2058C138.557 55.9444 140.515 56.5288 144.643 53.2058L151.399 48.2671C150.414 45.2189 149.904 41.953 149.896 38.6533C149.896 25.7203 157.699 15.0752 167.604 14.0401C168.092 13.9943 168.616 13.9523 169.143 13.9523C175.512 13.9523 181.146 17.9475 184.682 24.1008L189.616 20.5105C195.321 15.3884 199.801 14.5367 202.006 20.2813C205.262 15.1172 210.196 15.6138 212.682 19.9261C218.804 13.5474 224.72 17.6381 225 24.7807ZM180.202 27.3398C178.88 25.2038 177.198 23.4797 175.283 22.2969C173.368 21.1141 171.268 20.5034 169.143 20.5105C168.619 20.5105 168.092 20.5563 167.604 20.6021C164.142 21.0987 160.944 23.2139 158.619 26.5441C156.295 29.8743 155.008 34.1863 155.003 38.6571C155.003 40.903 155.318 43.0611 155.878 45.0358L180.202 27.3398ZM117.381 56.8497C125.149 56.8497 131.488 48.6758 131.488 38.6571C131.488 28.6881 125.149 20.5143 117.381 20.5143C113.634 20.5244 110.043 22.4391 107.393 25.8393C104.744 29.2396 103.252 33.8485 103.244 38.6571C103.244 48.672 109.577 56.8497 117.381 56.8497ZM79.8988 56.8497C83.656 56.8396 87.257 54.9196 89.9138 51.5101C92.5705 48.1005 94.0666 43.479 94.0744 38.6571C94.0744 28.6881 87.7054 20.5143 79.8988 20.5143C76.1519 20.5244 72.5607 22.4391 69.9112 25.8393C67.2617 29.2396 65.7698 33.8485 65.7619 38.6571C65.7619 48.672 72.0952 56.8497 79.8988 56.8497Z" fill="#DC261B"/>
</svg>
