<svg width="36" height="28" viewBox="0 0 36 28" fill="none" xmlns="http://www.w3.org/2000/svg">
<path id="Vector" d="M0.300096 11.9863C0.786201 15.3832 1.85512 18.6396 3.44659 21.5718C4.46986 23.3646 5.86241 24.8494 7.50462 25.8988C9.14682 26.9483 10.9896 27.5309 12.8747 27.5966C18.9966 27.5966 25.7114 21.5331 30.4197 14.6955C35.1281 7.85791 33.1786 10.7091 34.3187 8.60618C34.9533 7.47486 35.1879 6.11449 34.9758 4.79616C34.7636 3.47783 34.1203 2.29836 33.1741 1.49279C32.2278 0.687231 31.0481 0.314729 29.87 0.449525C28.6918 0.584321 27.6019 1.21652 26.8172 2.22012C25.0616 4.34881 15.9413 19.1206 9.38616 19.1206C6.82108 19.1206 4.55242 17.108 3.10458 14.7858C2.5257 13.7924 2.04043 12.733 1.65673 11.625C1.59244 11.4448 1.47238 11.2973 1.31897 11.21C1.16557 11.1226 0.989313 11.1015 0.823133 11.1505C0.656954 11.1994 0.512219 11.3152 0.415965 11.4762C0.319711 11.6371 0.278523 11.8322 0.300096 12.025V11.9863Z" fill="#671E75"/>
</svg>
